<?xml version="1.0" encoding="UTF-8" standalone="no"?>
<!DOCTYPE svg PUBLIC "-//W3C//DTD SVG 1.1//EN"
 "http://www.w3.org/Graphics/SVG/1.1/DTD/svg11.dtd">
<!-- Generated by graphviz version 2.38.0 (20140413.2041)
 -->
<!-- Title: ChromosomeAbnormality Pages: 1 -->
<svg width="301pt" height="398pt"
 viewBox="0.00 0.00 301.00 398.00" xmlns="http://www.w3.org/2000/svg" xmlns:xlink="http://www.w3.org/1999/xlink">
<g id="graph0" class="graph" transform="scale(1 1) rotate(0) translate(4 394)">
<title>ChromosomeAbnormality</title>
<polygon fill="white" stroke="none" points="-4,4 -4,-394 297,-394 297,4 -4,4"/>
<g id="clust1" class="cluster"><title>cluster_chromosome_x</title>
<polygon fill="lightgrey" stroke="lightgrey" points="215,-199 215,-382 285,-382 285,-199 215,-199"/>
<text text-anchor="middle" x="250" y="-366.8" font-family="Yu Gothic" font-size="14.00">染色体X</text>
</g>
<g id="clust2" class="cluster"><title>cluster_chromosome_y</title>
<polygon fill="lightgrey" stroke="lightgrey" points="215,-8 215,-191 285,-191 285,-8 215,-8"/>
<text text-anchor="middle" x="250" y="-175.8" font-family="Yu Gothic" font-size="14.00">染色体Y</text>
</g>
<!-- X -->
<g id="node1" class="node"><title>X</title>
<polygon fill="none" stroke="black" points="277,-243 223,-243 223,-207 277,-207 277,-243"/>
<text text-anchor="middle" x="250" y="-221.3" font-family="Yu Gothic" font-size="14.00">X</text>
</g>
<!-- ターナー症候群 -->
<g id="node9" class="node"><title>ターナー症候群</title>
<polygon fill="none" stroke="black" points="151.5,-236 35.5,-236 35.5,-200 151.5,-200 151.5,-236"/>
<text text-anchor="middle" x="93.5" y="-214.3" font-family="Yu Gothic" font-size="14.00">ターナー症候群</text>
</g>
<!-- X&#45;&gt;ターナー症候群 -->
<g id="edge5" class="edge"><title>X&#45;&gt;ターナー症候群</title>
<path fill="none" stroke="black" d="M222.791,-223.813C206.526,-223.076 184.797,-222.091 163.851,-221.142"/>
<polygon fill="black" stroke="black" points="163.644,-221.133 157.469,-224.857 151.656,-220.59 157.831,-216.865 163.644,-221.133"/>
</g>
<!-- 男性 -->
<g id="node11" class="node"><title>男性</title>
<polygon fill="none" stroke="black" points="120.5,-107 66.5,-107 66.5,-71 120.5,-71 120.5,-107"/>
<text text-anchor="middle" x="93.5" y="-85.3" font-family="Yu Gothic" font-size="14.00">男性</text>
</g>
<!-- X&#45;&gt;男性 -->
<g id="edge9" class="edge"><title>X&#45;&gt;男性</title>
<path fill="none" stroke="black" d="M225.654,-206.905C221.787,-203.238 218.05,-199.206 215,-195 196.537,-169.533 209.125,-152.358 187,-130 172.101,-114.944 150.714,-104.975 132.257,-98.641"/>
<polygon fill="black" stroke="black" points="132.096,-98.5902 125.172,-100.604 120.65,-94.9868 127.574,-92.9731 132.096,-98.5902"/>
</g>
<!-- XYY男性 -->
<g id="node12" class="node"><title>XYY男性</title>
<polygon fill="none" stroke="black" points="129.5,-53 57.5,-53 57.5,-17 129.5,-17 129.5,-53"/>
<text text-anchor="middle" x="93.5" y="-31.3" font-family="Yu Gothic" font-size="14.00">XYY男性</text>
</g>
<!-- X&#45;&gt;XYY男性 -->
<g id="edge11" class="edge"><title>X&#45;&gt;XYY男性</title>
<path fill="none" stroke="black" d="M224.251,-206.692C220.719,-203.151 217.457,-199.217 215,-195 184.585,-142.809 228.049,-106.316 187,-62 175.404,-49.4815 158.364,-42.6524 142.059,-38.9662"/>
<polygon fill="black" stroke="black" points="141.638,-38.8889 135.014,-41.7374 129.836,-36.7179 136.461,-33.8694 141.638,-38.8889"/>
</g>
<!-- XX -->
<g id="node2" class="node"><title>XX</title>
<polygon fill="none" stroke="black" points="277,-297 223,-297 223,-261 277,-261 277,-297"/>
<text text-anchor="middle" x="250" y="-275.3" font-family="Yu Gothic" font-size="14.00">XX</text>
</g>
<!-- 女性 -->
<g id="node8" class="node"><title>女性</title>
<polygon fill="none" stroke="black" points="120.5,-294 66.5,-294 66.5,-258 120.5,-258 120.5,-294"/>
<text text-anchor="middle" x="93.5" y="-272.3" font-family="Yu Gothic" font-size="14.00">女性</text>
</g>
<!-- XX&#45;&gt;女性 -->
<g id="edge3" class="edge"><title>XX&#45;&gt;女性</title>
<path fill="none" stroke="black" d="M222.791,-278.491C198.079,-278.011 160.754,-277.286 132.725,-276.742"/>
<polygon fill="black" stroke="black" points="132.577,-276.739 126.5,-280.622 120.579,-276.506 126.656,-272.624 132.577,-276.739"/>
</g>
<!-- クラインフェルター症候群 -->
<g id="node10" class="node"><title>クラインフェルター症候群</title>
<polygon fill="none" stroke="black" points="187,-175 0,-175 0,-139 187,-139 187,-175"/>
<text text-anchor="middle" x="93.5" y="-153.3" font-family="Yu Gothic" font-size="14.00">クラインフェルター症候群</text>
</g>
<!-- XX&#45;&gt;クラインフェルター症候群 -->
<g id="edge7" class="edge"><title>XX&#45;&gt;クラインフェルター症候群</title>
<path fill="none" stroke="black" d="M223.246,-260.765C220.257,-258.03 217.419,-255.084 215,-252 196.593,-228.525 208.901,-211.254 187,-191 183.006,-187.306 178.577,-184.006 173.883,-181.057"/>
<polygon fill="black" stroke="black" points="173.739,-180.977 166.551,-181.56 163.249,-175.15 170.436,-174.567 173.739,-180.977"/>
</g>
<!-- XXX -->
<g id="node3" class="node"><title>XXX</title>
<polygon fill="none" stroke="black" points="277,-351 223,-351 223,-315 277,-315 277,-351"/>
<text text-anchor="middle" x="250" y="-329.3" font-family="Yu Gothic" font-size="14.00">XXX</text>
</g>
<!-- トリプルX女性 -->
<g id="node7" class="node"><title>トリプルX女性</title>
<polygon fill="none" stroke="black" points="148,-350 39,-350 39,-314 148,-314 148,-350"/>
<text text-anchor="middle" x="93.5" y="-328.3" font-family="Yu Gothic" font-size="14.00">トリプルX女性</text>
</g>
<!-- XXX&#45;&gt;トリプルX女性 -->
<g id="edge1" class="edge"><title>XXX&#45;&gt;トリプルX女性</title>
<path fill="none" stroke="black" d="M222.791,-332.83C205.575,-332.719 182.238,-332.568 160.186,-332.425"/>
<polygon fill="black" stroke="black" points="160.115,-332.425 154.089,-336.386 148.115,-332.347 154.141,-328.386 160.115,-332.425"/>
</g>
<!-- O -->
<g id="node4" class="node"><title>O</title>
<polygon fill="none" stroke="black" points="277,-160 223,-160 223,-124 277,-124 277,-160"/>
<text text-anchor="middle" x="250" y="-138.3" font-family="Yu Gothic" font-size="14.00">O</text>
</g>
<!-- O&#45;&gt;トリプルX女性 -->
<g id="edge2" class="edge"><title>O&#45;&gt;トリプルX女性</title>
<path fill="none" stroke="black" d="M235.196,-160.317C228.313,-170.169 220.341,-182.779 215,-195 195.142,-240.437 221.173,-267.069 187,-303 179.5,-310.886 169.887,-316.638 159.707,-320.832"/>
<polygon fill="black" stroke="black" points="159.374,-320.949 155.043,-326.714 148.055,-324.934 152.386,-319.169 159.374,-320.949"/>
</g>
<!-- O&#45;&gt;女性 -->
<g id="edge4" class="edge"><title>O&#45;&gt;女性</title>
<path fill="none" stroke="black" d="M236.766,-160.471C230.17,-170.578 221.975,-183.376 215,-195 201.896,-216.84 206.613,-228.752 187,-245 171.528,-257.817 150.533,-265.412 132.456,-269.873"/>
<polygon fill="black" stroke="black" points="132.234,-269.921 127.227,-275.111 120.511,-272.486 125.518,-267.296 132.234,-269.921"/>
</g>
<!-- O&#45;&gt;ターナー症候群 -->
<g id="edge6" class="edge"><title>O&#45;&gt;ターナー症候群</title>
<path fill="none" stroke="black" d="M225.108,-160.189C213.926,-168.169 200.188,-177.237 187,-184 179.061,-188.071 170.517,-191.895 161.946,-195.402"/>
<polygon fill="black" stroke="black" points="161.876,-195.43 157.758,-201.35 150.71,-199.826 154.828,-193.906 161.876,-195.43"/>
</g>
<!-- Y -->
<g id="node5" class="node"><title>Y</title>
<polygon fill="none" stroke="black" points="277,-106 223,-106 223,-70 277,-70 277,-106"/>
<text text-anchor="middle" x="250" y="-84.3" font-family="Yu Gothic" font-size="14.00">Y</text>
</g>
<!-- Y&#45;&gt;クラインフェルター症候群 -->
<g id="edge8" class="edge"><title>Y&#45;&gt;クラインフェルター症候群</title>
<path fill="none" stroke="black" d="M222.772,-99.8935C211.735,-104.886 198.751,-110.742 187,-116 173.979,-121.826 159.91,-128.082 146.769,-133.908"/>
<polygon fill="black" stroke="black" points="146.481,-134.036 142.615,-140.123 135.509,-138.896 139.375,-132.809 146.481,-134.036"/>
</g>
<!-- Y&#45;&gt;男性 -->
<g id="edge10" class="edge"><title>Y&#45;&gt;男性</title>
<path fill="none" stroke="black" d="M222.791,-88.1696C198.079,-88.3296 160.754,-88.5712 132.725,-88.7526"/>
<polygon fill="black" stroke="black" points="132.579,-88.7534 126.605,-92.7922 120.579,-88.8312 126.553,-84.7924 132.579,-88.7534"/>
</g>
<!-- YY -->
<g id="node6" class="node"><title>YY</title>
<polygon fill="none" stroke="black" points="277,-52 223,-52 223,-16 277,-16 277,-52"/>
<text text-anchor="middle" x="250" y="-30.3" font-family="Yu Gothic" font-size="14.00">YY</text>
</g>
<!-- YY&#45;&gt;XYY男性 -->
<g id="edge12" class="edge"><title>YY&#45;&gt;XYY男性</title>
<path fill="none" stroke="black" d="M222.791,-34.1696C200.643,-34.313 168.363,-34.5219 141.725,-34.6943"/>
<polygon fill="black" stroke="black" points="141.555,-34.6953 135.581,-38.7341 129.555,-34.7731 135.529,-30.7343 141.555,-34.6953"/>
</g>
</g>
</svg>
