<?xml version="1.0" encoding="UTF-8" standalone="no"?>
<!DOCTYPE svg PUBLIC "-//W3C//DTD SVG 1.1//EN"
 "http://www.w3.org/Graphics/SVG/1.1/DTD/svg11.dtd">
<!-- Generated by graphviz version 2.38.0 (20140413.2041)
 -->
<!-- Title: CisMasculineMale Pages: 1 -->
<svg width="364pt" height="564pt"
 viewBox="0.00 0.00 364.00 564.00" xmlns="http://www.w3.org/2000/svg" xmlns:xlink="http://www.w3.org/1999/xlink">
<g id="graph0" class="graph" transform="scale(1 1) rotate(0) translate(4 560)">
<title>CisMasculineMale</title>
<polygon fill="white" stroke="none" points="-4,4 -4,-560 360,-560 360,4 -4,4"/>
<g id="clust1" class="cluster"><title>cluster_sex</title>
<polygon fill="lightgrey" stroke="lightgrey" points="32,-419 32,-548 102,-548 102,-419 32,-419"/>
<text text-anchor="middle" x="67" y="-532.8" font-family="Yu Gothic" font-size="14.00">性</text>
</g>
<g id="clust2" class="cluster"><title>cluster_gender_expression</title>
<polygon fill="lightgrey" stroke="lightgrey" points="8,-282 8,-411 126,-411 126,-282 8,-282"/>
<text text-anchor="middle" x="67" y="-395.8" font-family="Yu Gothic" font-size="14.00">性表現</text>
</g>
<g id="clust4" class="cluster"><title>cluster_gender_identity</title>
<polygon fill="lightgrey" stroke="lightgrey" points="32,-8 32,-137 102,-137 102,-8 32,-8"/>
<text text-anchor="middle" x="67" y="-121.8" font-family="Yu Gothic" font-size="14.00">性自認</text>
</g>
<g id="clust3" class="cluster"><title>cluster_vestism</title>
<polygon fill="lightgrey" stroke="lightgrey" points="32,-145 32,-274 102,-274 102,-145 32,-145"/>
<text text-anchor="middle" x="67" y="-258.8" font-family="Yu Gothic" font-size="14.00">服装</text>
</g>
<!-- オス -->
<g id="node1" class="node"><title>オス</title>
<polygon fill="none" stroke="black" points="94,-517 40,-517 40,-481 94,-481 94,-517"/>
<text text-anchor="middle" x="67" y="-495.3" font-family="Yu Gothic" font-size="14.00">オス</text>
</g>
<!-- メス -->
<g id="node2" class="node"><title>メス</title>
<polygon fill="none" stroke="black" points="94,-463 40,-463 40,-427 94,-427 94,-463"/>
<text text-anchor="middle" x="67" y="-441.3" font-family="Yu Gothic" font-size="14.00">メス</text>
</g>
<!-- マスキュリン -->
<g id="node3" class="node"><title>マスキュリン</title>
<polygon fill="none" stroke="black" points="118,-380 16,-380 16,-344 118,-344 118,-380"/>
<text text-anchor="middle" x="67" y="-358.3" font-family="Yu Gothic" font-size="14.00">マスキュリン</text>
</g>
<!-- フェミニン -->
<g id="node4" class="node"><title>フェミニン</title>
<polygon fill="none" stroke="black" points="110.5,-326 23.5,-326 23.5,-290 110.5,-290 110.5,-326"/>
<text text-anchor="middle" x="67" y="-304.3" font-family="Yu Gothic" font-size="14.00">フェミニン</text>
</g>
<!-- 女装 -->
<g id="node5" class="node"><title>女装</title>
<polygon fill="none" stroke="black" points="94,-243 40,-243 40,-207 94,-207 94,-243"/>
<text text-anchor="middle" x="67" y="-221.3" font-family="Yu Gothic" font-size="14.00">女装</text>
</g>
<!-- 男装 -->
<g id="node6" class="node"><title>男装</title>
<polygon fill="none" stroke="black" points="94,-189 40,-189 40,-153 94,-153 94,-189"/>
<text text-anchor="middle" x="67" y="-167.3" font-family="Yu Gothic" font-size="14.00">男装</text>
</g>
<!-- 男性 -->
<g id="node7" class="node"><title>男性</title>
<polygon fill="none" stroke="black" points="94,-106 40,-106 40,-70 94,-70 94,-106"/>
<text text-anchor="middle" x="67" y="-84.3" font-family="Yu Gothic" font-size="14.00">男性</text>
</g>
<!-- 女性 -->
<g id="node8" class="node"><title>女性</title>
<polygon fill="none" stroke="black" points="94,-52 40,-52 40,-16 94,-16 94,-52"/>
<text text-anchor="middle" x="67" y="-30.3" font-family="Yu Gothic" font-size="14.00">女性</text>
</g>
<!-- シス・マスキュリン男装男性 -->
<g id="node9" class="node"><title>シス・マスキュリン男装男性</title>
<polygon fill="none" stroke="black" points="356,-284 154,-284 154,-248 356,-248 356,-284"/>
<text text-anchor="middle" x="255" y="-262.3" font-family="Yu Gothic" font-size="14.00">シス・マスキュリン男装男性</text>
</g>
<!-- シス・マスキュリン男装男性&#45;&gt;オス -->
<g id="edge1" class="edge"><title>シス・マスキュリン男装男性&#45;&gt;オス</title>
<path fill="none" stroke="black" d="M246.994,-284.118C231.054,-323.242 188.545,-416.56 126,-472 119.429,-477.825 111.384,-482.627 103.403,-486.483"/>
<polygon fill="none" stroke="black" points="101.881,-483.329 94.1555,-490.579 104.716,-489.729 101.881,-483.329"/>
</g>
<!-- シス・マスキュリン男装男性&#45;&gt;マスキュリン -->
<g id="edge2" class="edge"><title>シス・マスキュリン男装男性&#45;&gt;マスキュリン</title>
<path fill="none" stroke="black" d="M221.658,-284.115C195.944,-298.352 158.944,-318.47 126,-335 123.071,-336.469 120.048,-337.959 116.989,-339.444"/>
<polygon fill="black" stroke="black" points="115.277,-336.383 107.772,-343.862 118.303,-342.696 115.277,-336.383"/>
</g>
<!-- シス・マスキュリン男装男性&#45;&gt;男装 -->
<g id="edge3" class="edge"><title>シス・マスキュリン男装男性&#45;&gt;男装</title>
<path fill="none" stroke="black" d="M221.097,-247.907C195.388,-233.919 158.662,-214.264 126,-198 118.729,-194.38 110.88,-190.625 103.376,-187.107"/>
<polygon fill="black" stroke="black" points="104.668,-183.848 94.1246,-182.807 101.717,-190.196 104.668,-183.848"/>
</g>
<!-- シス・マスキュリン男装男性&#45;&gt;男性 -->
<g id="edge4" class="edge"><title>シス・マスキュリン男装男性&#45;&gt;男性</title>
<path fill="none" stroke="black" stroke-dasharray="5,2" d="M235.533,-247.588C210.819,-223.034 165.513,-178.328 126,-141 116.22,-131.761 105.366,-121.774 95.7183,-112.986"/>
<polygon fill="none" stroke="black" points="98.0385,-110.366 88.2827,-106.233 93.3324,-115.547 98.0385,-110.366"/>
</g>
</g>
</svg>
