<?xml version="1.0" encoding="UTF-8" standalone="no"?>
<!DOCTYPE svg PUBLIC "-//W3C//DTD SVG 1.1//EN"
 "http://www.w3.org/Graphics/SVG/1.1/DTD/svg11.dtd">
<!-- Generated by graphviz version 2.38.0 (20140413.2041)
 -->
<!-- Title: Martin Pages: 1 -->
<svg width="325pt" height="120pt"
 viewBox="0.00 0.00 325.00 120.00" xmlns="http://www.w3.org/2000/svg" xmlns:xlink="http://www.w3.org/1999/xlink">
<g id="graph0" class="graph" transform="scale(1 1) rotate(0) translate(4 116)">
<title>Martin</title>
<polygon fill="white" stroke="none" points="-4,4 -4,-116 321,-116 321,4 -4,4"/>
<!-- A×B -->
<g id="node1" class="node"><title>A×B</title>
<polygon fill="none" stroke="black" points="185.5,-112 131.5,-112 131.5,-76 185.5,-76 185.5,-112"/>
<text text-anchor="middle" x="158.5" y="-90.3" font-family="Yu Gothic" font-size="14.00">A×B</text>
</g>
<!-- R:A→B -->
<g id="node2" class="node"><title>R:A→B</title>
<polygon fill="none" stroke="black" points="190,-40 127,-40 127,-4 190,-4 190,-40"/>
<text text-anchor="middle" x="158.5" y="-18.3" font-family="Yu Gothic" font-size="14.00">R:A→B</text>
</g>
<!-- A×B&#45;&gt;R:A→B -->
<g id="edge3" class="edge"><title>A×B&#45;&gt;R:A→B</title>
<path fill="none" stroke="black" d="M158.5,-65.725C158.5,-61.6099 158.5,-57.4949 158.5,-53.3798"/>
<polygon fill="black" stroke="black" points="163.5,-74.9539 153.5,-74.9538 153.5,-72.9538 163.5,-72.9539 163.5,-74.9539"/>
<polyline fill="none" stroke="black" points="158.5,-75.9539 158.5,-70.9539 "/>
<polygon fill="black" stroke="black" points="163.5,-69.9539 153.5,-69.9538 153.5,-67.9538 163.5,-67.9539 163.5,-69.9539"/>
<polyline fill="none" stroke="black" points="158.5,-70.9539 158.5,-65.9539 "/>
<polygon fill="black" stroke="black" points="153.5,-41.2813 163.5,-41.2812 163.5,-43.2812 153.5,-43.2813 153.5,-41.2813"/>
<polyline fill="none" stroke="black" points="158.5,-40.2813 158.5,-45.2813 "/>
<ellipse fill="none" stroke="black" cx="158.5" cy="-49.2813" rx="4" ry="4"/>
</g>
<!-- B -->
<g id="node3" class="node"><title>B</title>
<polygon fill="none" stroke="black" points="317,-108 263,-108 263,-72 317,-72 317,-108"/>
<text text-anchor="middle" x="290" y="-86.3" font-family="Yu Gothic" font-size="14.00">B</text>
</g>
<!-- A×B&#45;&gt;B -->
<g id="edge4" class="edge"><title>A×B&#45;&gt;B</title>
<path fill="none" stroke="black" d="M200.74,-92.7262C217.433,-92.2106 236.539,-91.6204 252.696,-91.1214"/>
<polygon fill="black" stroke="black" points="195.701,-92.8817 185.567,-88.6927 190.704,-93.0361 185.706,-93.1905 185.706,-93.1905 185.706,-93.1905 190.704,-93.0361 185.845,-97.6884 195.701,-92.8817 195.701,-92.8817"/>
<polygon fill="black" stroke="black" points="196.855,-97.8485 196.547,-87.8532 198.546,-87.7915 198.854,-97.7867 196.855,-97.8485"/>
<polyline fill="none" stroke="black" points="195.701,-92.8817 200.699,-92.7273 "/>
<polygon fill="black" stroke="black" points="261.679,-85.8415 261.988,-95.8368 259.989,-95.8985 259.68,-85.9033 261.679,-85.8415"/>
<polyline fill="none" stroke="black" points="262.833,-90.8083 257.835,-90.9627 "/>
<polygon fill="black" stroke="black" points="256.681,-85.9959 256.99,-95.9912 254.991,-96.0529 254.682,-86.0577 256.681,-85.9959"/>
<polyline fill="none" stroke="black" points="257.835,-90.9627 252.837,-91.1171 "/>
</g>
<!-- R:A→B&#45;&gt;B -->
<g id="edge5" class="edge"><title>R:A→B&#45;&gt;B</title>
<path fill="none" stroke="black" d="M206.195,-46.5195C221.856,-54.743 239.049,-63.7707 253.69,-71.4587"/>
<polygon fill="black" stroke="black" points="199.043,-42.7641 192.282,-34.1309 194.617,-40.4396 190.19,-38.1151 190.19,-38.1151 190.19,-38.1151 194.617,-40.4396 188.098,-42.0992 199.043,-42.7641 199.043,-42.7641"/>
<ellipse fill="none" stroke="black" cx="202.585" cy="-44.6237" rx="4.00001" ry="4.00001"/>
<polygon fill="black" stroke="black" points="264.34,-71.4037 259.691,-80.2574 257.92,-79.3275 262.569,-70.4739 264.34,-71.4037"/>
<polyline fill="none" stroke="black" points="262.901,-76.2954 258.474,-73.9709 "/>
<polygon fill="black" stroke="black" points="259.913,-69.0792 255.264,-77.9328 253.493,-77.003 258.142,-68.1494 259.913,-69.0792"/>
<polyline fill="none" stroke="black" points="258.474,-73.9709 254.047,-71.6464 "/>
</g>
<!-- R(A) -->
<g id="node4" class="node"><title>R(A)</title>
<polygon fill="none" stroke="black" points="317,-36 263,-36 263,-0 317,-0 317,-36"/>
<text text-anchor="middle" x="290" y="-14.3" font-family="Yu Gothic" font-size="14.00">R(A)</text>
</g>
<!-- R:A→B&#45;&gt;R(A) -->
<g id="edge6" class="edge"><title>R:A→B&#45;&gt;R(A)</title>
<path fill="none" stroke="black" d="M205.329,-20.5844C220.867,-20.1045 237.998,-19.5754 252.691,-19.1215"/>
<polygon fill="black" stroke="black" points="200.185,-20.7433 190.051,-16.5542 195.187,-20.8977 190.19,-21.0521 190.19,-21.0521 190.19,-21.0521 195.187,-20.8977 190.329,-25.5499 200.185,-20.7433 200.185,-20.7433"/>
<polygon fill="black" stroke="black" points="201.339,-25.71 201.03,-15.7148 203.029,-15.653 203.338,-25.6482 201.339,-25.71"/>
<polyline fill="none" stroke="black" points="200.185,-20.7433 205.183,-20.5889 "/>
<polygon fill="black" stroke="black" points="261.747,-13.8394 262.056,-23.8346 260.057,-23.8964 259.748,-13.9012 261.747,-13.8394"/>
<polyline fill="none" stroke="black" points="262.901,-18.8062 257.903,-18.9606 "/>
<polygon fill="black" stroke="black" points="256.749,-13.9938 257.058,-23.9891 255.059,-24.0508 254.75,-14.0556 256.749,-13.9938"/>
<polyline fill="none" stroke="black" points="257.903,-18.9606 252.906,-19.115 "/>
</g>
<!-- B&#45;&gt;R(A) -->
<g id="edge7" class="edge"><title>B&#45;&gt;R(A)</title>
<path fill="none" stroke="black" d="M290,-61.725C290,-57.6099 290,-53.4949 290,-49.3798"/>
<polygon fill="black" stroke="black" points="295,-70.9539 285,-70.9538 285,-68.9538 295,-68.9539 295,-70.9539"/>
<polyline fill="none" stroke="black" points="290,-71.9539 290,-66.9539 "/>
<polygon fill="black" stroke="black" points="295,-65.9539 285,-65.9538 285,-63.9538 295,-63.9539 295,-65.9539"/>
<polyline fill="none" stroke="black" points="290,-66.9539 290,-61.9539 "/>
<polygon fill="black" stroke="black" points="285,-37.2813 295,-37.2812 295,-39.2812 285,-39.2813 285,-37.2813"/>
<polyline fill="none" stroke="black" points="290,-36.2813 290,-41.2813 "/>
<ellipse fill="none" stroke="black" cx="290" cy="-45.2813" rx="4" ry="4"/>
</g>
<!-- A -->
<g id="node5" class="node"><title>A</title>
<polygon fill="none" stroke="black" points="54,-75 0,-75 0,-39 54,-39 54,-75"/>
<text text-anchor="middle" x="27" y="-53.3" font-family="Yu Gothic" font-size="14.00">A</text>
</g>
<!-- A&#45;&gt;A×B -->
<g id="edge1" class="edge"><title>A&#45;&gt;A×B</title>
<path fill="none" stroke="black" d="M63.9176,-67.2622C80.2863,-71.9389 99.7441,-77.4983 116.666,-82.3332"/>
<polygon fill="black" stroke="black" points="53.7941,-69.5699 56.5414,-59.9546 58.4645,-60.5041 55.7172,-70.1193 53.7941,-69.5699"/>
<polyline fill="none" stroke="black" points="54.2063,-64.4875 59.0139,-65.8611 "/>
<polygon fill="black" stroke="black" points="58.6018,-70.9435 61.349,-61.3283 63.2721,-61.8777 60.5248,-71.493 58.6018,-70.9435"/>
<polyline fill="none" stroke="black" points="59.0139,-65.8611 63.8215,-67.2348 "/>
<polygon fill="black" stroke="black" points="121.717,-83.7764 130.096,-90.8505 126.525,-85.15 131.333,-86.5236 131.333,-86.5236 131.333,-86.5236 126.525,-85.15 132.569,-82.1968 121.717,-83.7764 121.717,-83.7764"/>
<polygon fill="black" stroke="black" points="122.13,-78.694 119.382,-88.3093 117.459,-87.7598 120.207,-78.1446 122.13,-78.694"/>
<polyline fill="none" stroke="black" points="121.717,-83.7764 116.91,-82.4027 "/>
</g>
<!-- A&#45;&gt;R:A→B -->
<g id="edge2" class="edge"><title>A&#45;&gt;R:A→B</title>
<path fill="none" stroke="black" d="M64.0628,-47.2533C80.3965,-42.8388 99.7828,-37.5992 116.652,-33.0401"/>
<polygon fill="black" stroke="black" points="56.4762,-54.4831 53.867,-44.8295 55.7978,-44.3077 58.4069,-53.9613 56.4762,-54.4831"/>
<polyline fill="none" stroke="black" points="54.2063,-49.9172 59.0331,-48.6126 "/>
<polygon fill="black" stroke="black" points="61.303,-53.1785 58.6939,-43.5249 60.6246,-43.0031 63.2337,-52.6567 61.303,-53.1785"/>
<polyline fill="none" stroke="black" points="59.0331,-48.6126 63.8599,-47.3081 "/>
<polygon fill="black" stroke="black" points="124.51,-25.7369 127.119,-35.3906 125.188,-35.9124 122.579,-26.2588 124.51,-25.7369"/>
<polyline fill="none" stroke="black" points="126.78,-30.3028 121.953,-31.6074 "/>
<polygon fill="black" stroke="black" points="119.683,-27.0415 122.292,-36.6951 120.361,-37.217 117.752,-27.5633 119.683,-27.0415"/>
<polyline fill="none" stroke="black" points="121.953,-31.6074 117.126,-32.912 "/>
</g>
</g>
</svg>
