<?xml version="1.0" encoding="UTF-8" standalone="no"?>
<!DOCTYPE svg PUBLIC "-//W3C//DTD SVG 1.1//EN"
 "http://www.w3.org/Graphics/SVG/1.1/DTD/svg11.dtd">
<!-- Generated by graphviz version 2.38.0 (20140413.2041)
 -->
<!-- Title: Document Pages: 1 -->
<svg width="284pt" height="566pt"
 viewBox="0.00 0.00 284.25 566.00" xmlns="http://www.w3.org/2000/svg" xmlns:xlink="http://www.w3.org/1999/xlink">
<g id="graph0" class="graph" transform="scale(1 1) rotate(0) translate(4 562)">
<title>Document</title>
<polygon fill="white" stroke="none" points="-4,4 -4,-562 280.247,-562 280.247,4 -4,4"/>
<!-- URL -->
<g id="node1" class="node"><title>URL</title>
<ellipse fill="none" stroke="black" cx="194.247" cy="-540" rx="29.4969" ry="18"/>
<text text-anchor="middle" x="194.247" y="-536.3" font-family="Yu Gothic" font-size="14.00">URL</text>
</g>
<!-- HTML文書 -->
<g id="node2" class="node"><title>HTML文書</title>
<ellipse fill="none" stroke="black" cx="142.247" cy="-453" rx="55.4913" ry="18"/>
<text text-anchor="middle" x="142.247" y="-449.3" font-family="Yu Gothic" font-size="14.00">HTML文書</text>
</g>
<!-- URL&#45;&gt;HTML文書 -->
<g id="edge1" class="edge"><title>URL&#45;&gt;HTML文書</title>
<path fill="none" stroke="black" d="M184.467,-523.012C176.985,-510.783 166.521,-493.677 157.882,-479.556"/>
<polygon fill="black" stroke="black" points="152.518,-470.789 161.575,-476.97 155.127,-475.054 157.737,-479.319 157.737,-479.319 157.737,-479.319 155.127,-475.054 153.898,-481.667 152.518,-470.789 152.518,-470.789"/>
<text text-anchor="middle" x="185.747" y="-492.8" font-family="Yu Gothic" font-size="14.00">GET</text>
</g>
<!-- 抽象文書 -->
<g id="node7" class="node"><title>抽象文書</title>
<polygon fill="none" stroke="black" points="167.747,-123 94.7474,-123 94.7474,-87 167.747,-87 167.747,-123"/>
<text text-anchor="middle" x="131.247" y="-101.3" font-family="Yu Gothic" font-size="14.00">抽象文書</text>
</g>
<!-- URL&#45;&gt;抽象文書 -->
<g id="edge10" class="edge"><title>URL&#45;&gt;抽象文書</title>
<path fill="none" stroke="black" stroke-dasharray="5,2" d="M204.197,-523.059C213.591,-506.461 226.247,-479.387 226.247,-454 226.247,-454 226.247,-454 226.247,-191 226.247,-161.927 201.231,-140.309 176.874,-126.151"/>
<polygon fill="black" stroke="black" points="178.428,-123.011 167.977,-121.272 175.062,-129.149 178.428,-123.011"/>
<text text-anchor="middle" x="251.247" y="-318.8" font-family="Yu Gothic" font-size="14.00">identify</text>
</g>
<!-- DOMツリー -->
<g id="node3" class="node"><title>DOMツリー</title>
<ellipse fill="none" stroke="black" cx="138.247" cy="-366" rx="60.3893" ry="18"/>
<text text-anchor="middle" x="138.247" y="-362.3" font-family="Yu Gothic" font-size="14.00">DOMツリー</text>
</g>
<!-- HTML文書&#45;&gt;DOMツリー -->
<g id="edge2" class="edge"><title>HTML文書&#45;&gt;DOMツリー</title>
<path fill="none" stroke="black" d="M141.438,-434.799C140.89,-423.163 140.156,-407.548 139.529,-394.237"/>
<polygon fill="black" stroke="black" points="139.056,-384.175 144.021,-393.953 139.291,-389.17 139.526,-394.164 139.526,-394.164 139.526,-394.164 139.291,-389.17 135.031,-394.376 139.056,-384.175 139.056,-384.175"/>
<text text-anchor="middle" x="159.247" y="-405.8" font-family="Yu Gothic" font-size="14.00">parse</text>
</g>
<!-- 紙面 -->
<g id="node4" class="node"><title>紙面</title>
<ellipse fill="none" stroke="black" cx="66.2474" cy="-279" rx="29.4969" ry="18"/>
<text text-anchor="middle" x="66.2474" y="-275.3" font-family="Yu Gothic" font-size="14.00">紙面</text>
</g>
<!-- DOMツリー&#45;&gt;紙面 -->
<g id="edge4" class="edge"><title>DOMツリー&#45;&gt;紙面</title>
<path fill="none" stroke="black" d="M110.853,-349.765C102.808,-344.319 94.4994,-337.617 88.2474,-330 82.601,-323.121 78.1379,-314.566 74.7494,-306.489"/>
<polygon fill="black" stroke="black" points="71.1417,-297.018 78.9067,-304.761 72.9216,-301.69 74.7014,-306.363 74.7014,-306.363 74.7014,-306.363 72.9216,-301.69 70.4962,-307.965 71.1417,-297.018 71.1417,-297.018"/>
<text text-anchor="middle" x="110.247" y="-318.8" font-family="Yu Gothic" font-size="14.00">render</text>
</g>
<!-- DOMツリー&#45;&gt;抽象文書 -->
<g id="edge3" class="edge"><title>DOMツリー&#45;&gt;抽象文書</title>
<path fill="none" stroke="black" stroke-dasharray="5,2" d="M137.777,-347.604C136.584,-303.462 133.432,-186.829 131.988,-133.415"/>
<polygon fill="none" stroke="black" points="135.485,-133.222 131.716,-123.32 128.487,-133.411 135.485,-133.222"/>
<text text-anchor="middle" x="166.747" y="-231.8" font-family="Yu Gothic" font-size="14.00">represent</text>
</g>
<!-- 認識 -->
<g id="node5" class="node"><title>認識</title>
<ellipse fill="none" stroke="black" cx="59.2474" cy="-192" rx="29.4969" ry="18"/>
<text text-anchor="middle" x="59.2474" y="-188.3" font-family="Yu Gothic" font-size="14.00">認識</text>
</g>
<!-- 紙面&#45;&gt;認識 -->
<g id="edge5" class="edge"><title>紙面&#45;&gt;認識</title>
<path fill="none" stroke="black" d="M62.803,-260.979C61.7921,-255.287 60.8081,-248.892 60.2474,-243 59.551,-235.683 59.2058,-227.738 59.0558,-220.379"/>
<polygon fill="black" stroke="black" points="58.9573,-210.161 63.5535,-220.117 59.0055,-215.161 59.0537,-220.16 59.0537,-220.16 59.0537,-220.16 59.0055,-215.161 54.554,-220.204 58.9573,-210.161 58.9573,-210.161"/>
<text text-anchor="middle" x="92.2474" y="-231.8" font-family="Yu Gothic" font-size="14.00">recognize</text>
</g>
<!-- 理解 -->
<g id="node6" class="node"><title>理解</title>
<ellipse fill="none" stroke="black" cx="29.2474" cy="-105" rx="29.4969" ry="18"/>
<text text-anchor="middle" x="29.2474" y="-101.3" font-family="Yu Gothic" font-size="14.00">理解</text>
</g>
<!-- 認識&#45;&gt;理解 -->
<g id="edge6" class="edge"><title>認識&#45;&gt;理解</title>
<path fill="none" stroke="black" d="M36.7112,-180.207C27.3414,-174.439 17.4519,-166.365 12.2474,-156 8.28482,-148.109 9.71006,-139.078 13.03,-130.882"/>
<polygon fill="black" stroke="black" points="17.5883,-121.763 17.1423,-132.72 15.3527,-126.235 13.1171,-130.708 13.1171,-130.708 13.1171,-130.708 15.3527,-126.235 9.09199,-128.696 17.5883,-121.763 17.5883,-121.763"/>
<text text-anchor="middle" x="53.7474" y="-144.8" font-family="Yu Gothic" font-size="14.00">comprehend</text>
</g>
<!-- 認識&#45;&gt;抽象文書 -->
<g id="edge7" class="edge"><title>認識&#45;&gt;抽象文書</title>
<path fill="none" stroke="black" stroke-dasharray="5,2" d="M75.2663,-176.58C81.7303,-170.472 89.0983,-163.129 95.2474,-156 101.815,-148.386 108.413,-139.623 114.134,-131.58"/>
<polygon fill="black" stroke="black" points="119.954,-123.224 117.931,-134.002 117.096,-127.327 114.239,-131.43 114.239,-131.43 114.239,-131.43 117.096,-127.327 110.546,-128.858 119.954,-123.224 119.954,-123.224"/>
<text text-anchor="middle" x="114.247" y="-144.8" font-family="Yu Gothic" font-size="14.00">of</text>
</g>
<!-- 事物 -->
<g id="node8" class="node"><title>事物</title>
<polygon fill="none" stroke="black" points="114.247,-36 60.2474,-36 60.2474,-0 114.247,-0 114.247,-36"/>
<text text-anchor="middle" x="87.2474" y="-14.3" font-family="Yu Gothic" font-size="14.00">事物</text>
</g>
<!-- 理解&#45;&gt;事物 -->
<g id="edge8" class="edge"><title>理解&#45;&gt;事物</title>
<path fill="none" stroke="black" stroke-dasharray="5,2" d="M40.1568,-88.0122C48.5266,-75.746 60.2438,-58.5742 69.8962,-44.4285"/>
<polygon fill="black" stroke="black" points="75.5909,-36.0828 73.6716,-46.8794 72.7727,-40.2129 69.9545,-44.343 69.9545,-44.343 69.9545,-44.343 72.7727,-40.2129 66.2374,-41.8067 75.5909,-36.0828 75.5909,-36.0828"/>
<text text-anchor="middle" x="69.2474" y="-57.8" font-family="Yu Gothic" font-size="14.00">of</text>
</g>
<!-- 抽象文書&#45;&gt;事物 -->
<g id="edge9" class="edge"><title>抽象文書&#45;&gt;事物</title>
<path fill="none" stroke="black" stroke-dasharray="5,2" d="M122.343,-86.799C116.141,-74.8169 107.755,-58.6168 100.736,-45.0569"/>
<polygon fill="black" stroke="black" points="96.1382,-36.1754 104.732,-42.9874 98.4368,-40.6158 100.735,-45.0562 100.735,-45.0562 100.735,-45.0562 98.4368,-40.6158 96.739,-47.1249 96.1382,-36.1754 96.1382,-36.1754"/>
<text text-anchor="middle" x="141.247" y="-57.8" font-family="Yu Gothic" font-size="14.00">describe</text>
</g>
</g>
</svg>
