<?xml version="1.0" encoding="UTF-8" standalone="no"?>
<!DOCTYPE svg PUBLIC "-//W3C//DTD SVG 1.1//EN"
 "http://www.w3.org/Graphics/SVG/1.1/DTD/svg11.dtd">
<!-- Generated by graphviz version 2.38.0 (20140413.2041)
 -->
<!-- Title: ESClass Pages: 1 -->
<svg width="430pt" height="583pt"
 viewBox="0.00 0.00 429.50 583.00" xmlns="http://www.w3.org/2000/svg" xmlns:xlink="http://www.w3.org/1999/xlink">
<g id="graph0" class="graph" transform="scale(1 1) rotate(0) translate(4 579)">
<title>ESClass</title>
<polygon fill="white" stroke="none" points="-4,4 -4,-579 425.5,-579 425.5,4 -4,4"/>
<!-- null -->
<g id="node1" class="node"><title>null</title>
<ellipse fill="none" stroke="black" cx="358.5" cy="-557" rx="27" ry="18"/>
<text text-anchor="middle" x="358.5" y="-553.3" font-family="Yu Gothic" font-size="14.00">null</text>
</g>
<!-- Object -->
<g id="node2" class="node"><title>Object</title>
<polygon fill="none" stroke="black" points="231,-415 170,-415 170,-379 231,-379 231,-415"/>
<text text-anchor="middle" x="200.5" y="-393.3" font-family="Yu Gothic" font-size="14.00">Object</text>
</g>
<!-- Object.prototype -->
<g id="node3" class="node"><title>Object.prototype</title>
<polygon fill="none" stroke="black" points="352.5,-328 224.5,-328 224.5,-292 352.5,-292 352.5,-328"/>
<text text-anchor="middle" x="288.5" y="-306.3" font-family="Yu Gothic" font-size="14.00">Object.prototype</text>
</g>
<!-- Object&#45;&gt;Object.prototype -->
<g id="edge1" class="edge"><title>Object&#45;&gt;Object.prototype</title>
<path fill="none" stroke="black" d="M213.254,-378.975C221.167,-368.902 231.831,-356.167 242.5,-346 246.586,-342.106 251.098,-338.233 255.651,-334.561"/>
<polygon fill="black" stroke="black" points="263.806,-328.205 258.685,-337.901 259.862,-331.279 255.919,-334.352 255.919,-334.352 255.919,-334.352 259.862,-331.279 253.152,-330.803 263.806,-328.205 263.806,-328.205"/>
<text text-anchor="middle" x="274.5" y="-349.8" font-family="Yu Gothic" font-size="14.00">prototype</text>
</g>
<!-- Function.prototype -->
<g id="node5" class="node"><title>Function.prototype</title>
<polygon fill="none" stroke="black" points="272,-488 129,-488 129,-452 272,-452 272,-488"/>
<text text-anchor="middle" x="200.5" y="-466.3" font-family="Yu Gothic" font-size="14.00">Function.prototype</text>
</g>
<!-- Object&#45;&gt;Function.prototype -->
<g id="edge5" class="edge"><title>Object&#45;&gt;Function.prototype</title>
<path fill="none" stroke="black" d="M200.5,-415.187C200.5,-423.211 200.5,-432.953 200.5,-441.931"/>
<polygon fill="none" stroke="black" points="197,-441.971 200.5,-451.971 204,-441.971 197,-441.971"/>
</g>
<!-- Object.prototype&#45;&gt;null -->
<g id="edge6" class="edge"><title>Object.prototype&#45;&gt;null</title>
<path fill="none" stroke="black" d="M307.602,-328.048C312.498,-333.343 317.285,-339.507 320.5,-346 350.462,-406.499 357.023,-487.267 358.316,-528.799"/>
<polygon fill="none" stroke="black" points="354.821,-529.034 358.55,-538.951 361.819,-528.873 354.821,-529.034"/>
</g>
<!-- Object.prototype&#45;&gt;Object -->
<g id="edge2" class="edge"><title>Object.prototype&#45;&gt;Object</title>
<path fill="none" stroke="black" d="M224.374,-319.286C192.28,-324.886 158.214,-333.559 148.5,-346 139.965,-356.932 148.545,-367.762 161.029,-376.534"/>
<polygon fill="black" stroke="black" points="169.657,-381.98 158.799,-380.447 165.429,-379.311 161.201,-376.642 161.201,-376.642 161.201,-376.642 165.429,-379.311 163.604,-372.837 169.657,-381.98 169.657,-381.98"/>
<text text-anchor="middle" x="187" y="-349.8" font-family="Yu Gothic" font-size="14.00">constructor</text>
</g>
<!-- Function -->
<g id="node4" class="node"><title>Function</title>
<polygon fill="none" stroke="black" points="238,-575 163,-575 163,-539 238,-539 238,-575"/>
<text text-anchor="middle" x="200.5" y="-553.3" font-family="Yu Gothic" font-size="14.00">Function</text>
</g>
<!-- Function&#45;&gt;Function.prototype -->
<g id="edge3" class="edge"><title>Function&#45;&gt;Function.prototype</title>
<path fill="none" stroke="black" d="M162.8,-548.482C147.592,-543.398 131.534,-534.955 122.5,-521 115.185,-509.7 120.988,-500.445 132.114,-493.105"/>
<polygon fill="black" stroke="black" points="141.045,-488.097 134.524,-496.913 136.684,-490.542 132.323,-492.988 132.323,-492.988 132.323,-492.988 136.684,-490.542 130.122,-489.063 141.045,-488.097 141.045,-488.097"/>
<text text-anchor="middle" x="154.5" y="-509.8" font-family="Yu Gothic" font-size="14.00">prototype</text>
</g>
<!-- Function&#45;&gt;Function.prototype -->
<g id="edge7" class="edge"><title>Function&#45;&gt;Function.prototype</title>
<path fill="none" stroke="black" d="M200.5,-538.825C200.5,-527.194 200.5,-511.581 200.5,-498.266"/>
<polygon fill="none" stroke="black" points="204,-498.201 200.5,-488.201 197,-498.201 204,-498.201"/>
</g>
<!-- Function.prototype&#45;&gt;Object.prototype -->
<g id="edge8" class="edge"><title>Function.prototype&#45;&gt;Object.prototype</title>
<path fill="none" stroke="black" d="M226.366,-451.945C252.226,-433.181 290.397,-400.397 306.5,-361 309.593,-353.434 308.389,-345.117 305.492,-337.474"/>
<polygon fill="none" stroke="black" points="308.567,-335.791 301.114,-328.261 302.245,-338.796 308.567,-335.791"/>
</g>
<!-- Function.prototype&#45;&gt;Function -->
<g id="edge4" class="edge"><title>Function.prototype&#45;&gt;Function</title>
<path fill="none" stroke="black" d="M207.443,-488.022C210.56,-497.645 213.199,-509.93 211.5,-521 211.089,-523.682 210.509,-526.44 209.83,-529.175"/>
<polygon fill="black" stroke="black" points="207.049,-538.801 205.501,-527.945 208.437,-533.997 209.825,-529.194 209.825,-529.194 209.825,-529.194 208.437,-533.997 214.148,-530.443 207.049,-538.801 207.049,-538.801"/>
<text text-anchor="middle" x="251" y="-509.8" font-family="Yu Gothic" font-size="14.00">constructor</text>
</g>
<!-- class X {} -->
<g id="node6" class="node"><title>class X {}</title>
<polygon fill="none" stroke="black" points="147.5,-255 69.5,-255 69.5,-219 147.5,-219 147.5,-255"/>
<text text-anchor="middle" x="108.5" y="-233.3" font-family="Yu Gothic" font-size="14.00">class X {}</text>
</g>
<!-- class X {}&#45;&gt;Function.prototype -->
<g id="edge11" class="edge"><title>class X {}&#45;&gt;Function.prototype</title>
<path fill="none" stroke="black" d="M111.176,-255.216C116.759,-287.902 131.597,-360.541 160.5,-415 165.805,-424.996 172.833,-435.17 179.516,-443.952"/>
<polygon fill="none" stroke="black" points="176.823,-446.189 185.751,-451.893 182.329,-441.866 176.823,-446.189"/>
</g>
<!-- X.prototype -->
<g id="node7" class="node"><title>X.prototype</title>
<polygon fill="none" stroke="black" points="335,-255 242,-255 242,-219 335,-219 335,-255"/>
<text text-anchor="middle" x="288.5" y="-233.3" font-family="Yu Gothic" font-size="14.00">X.prototype</text>
</g>
<!-- class X {}&#45;&gt;X.prototype -->
<g id="edge9" class="edge"><title>class X {}&#45;&gt;X.prototype</title>
<path fill="none" stroke="black" d="M147.537,-251.589C152.595,-252.993 157.754,-254.193 162.75,-255 190.83,-259.537 198.591,-259.02 226.75,-255 228.46,-254.756 230.189,-254.475 231.928,-254.164"/>
<polygon fill="black" stroke="black" points="241.941,-252.079 233.069,-258.523 237.046,-253.099 232.151,-254.118 232.151,-254.118 232.151,-254.118 237.046,-253.099 231.234,-249.712 241.941,-252.079 241.941,-252.079"/>
<text text-anchor="middle" x="194.75" y="-243.8" font-family="Yu Gothic" font-size="14.00">prototype</text>
</g>
<!-- X.prototype&#45;&gt;Object.prototype -->
<g id="edge12" class="edge"><title>X.prototype&#45;&gt;Object.prototype</title>
<path fill="none" stroke="black" d="M288.5,-255.187C288.5,-263.211 288.5,-272.953 288.5,-281.931"/>
<polygon fill="none" stroke="black" points="285,-281.971 288.5,-291.971 292,-281.971 285,-281.971"/>
</g>
<!-- X.prototype&#45;&gt;class X {} -->
<g id="edge10" class="edge"><title>X.prototype&#45;&gt;class X {}</title>
<path fill="none" stroke="black" d="M241.86,-237C216.016,-237 183.904,-237 157.667,-237"/>
<polygon fill="black" stroke="black" points="147.557,-237 157.557,-232.5 152.557,-237 157.557,-237 157.557,-237 157.557,-237 152.557,-237 157.557,-241.5 147.557,-237 147.557,-237"/>
<text text-anchor="middle" x="194.75" y="-222.8" font-family="Yu Gothic" font-size="14.00">constructor</text>
</g>
<!-- new X() -->
<g id="node8" class="node"><title>new X()</title>
<polygon fill="none" stroke="black" points="421.5,-182 353.5,-182 353.5,-146 421.5,-146 421.5,-182"/>
<text text-anchor="middle" x="387.5" y="-160.3" font-family="Yu Gothic" font-size="14.00">new X()</text>
</g>
<!-- new X()&#45;&gt;X.prototype -->
<g id="edge13" class="edge"><title>new X()&#45;&gt;X.prototype</title>
<path fill="none" stroke="black" d="M363.787,-182.006C350.902,-191.247 334.782,-202.808 320.768,-212.858"/>
<polygon fill="none" stroke="black" points="318.449,-210.214 312.363,-218.886 322.529,-215.903 318.449,-210.214"/>
</g>
<!-- class Y extends X {} -->
<g id="node9" class="node"><title>class Y extends X {}</title>
<polygon fill="none" stroke="black" points="147,-182 0,-182 0,-146 147,-146 147,-182"/>
<text text-anchor="middle" x="73.5" y="-160.3" font-family="Yu Gothic" font-size="14.00">class Y extends X {}</text>
</g>
<!-- class Y extends X {}&#45;&gt;class X {} -->
<g id="edge16" class="edge"><title>class Y extends X {}&#45;&gt;class X {}</title>
<path fill="none" stroke="black" d="M81.9725,-182.187C86.0567,-190.472 91.0442,-200.59 95.5878,-209.807"/>
<polygon fill="none" stroke="black" points="92.5446,-211.549 100.105,-218.971 98.8232,-208.454 92.5446,-211.549"/>
</g>
<!-- Y.prototype -->
<g id="node10" class="node"><title>Y.prototype</title>
<polygon fill="none" stroke="black" points="335,-182 242,-182 242,-146 335,-146 335,-182"/>
<text text-anchor="middle" x="288.5" y="-160.3" font-family="Yu Gothic" font-size="14.00">Y.prototype</text>
</g>
<!-- class Y extends X {}&#45;&gt;Y.prototype -->
<g id="edge14" class="edge"><title>class Y extends X {}&#45;&gt;Y.prototype</title>
<path fill="none" stroke="black" d="M147.135,-180.379C172.338,-183.936 200.683,-185.672 226.5,-182 228.217,-181.756 229.952,-181.476 231.698,-181.164"/>
<polygon fill="black" stroke="black" points="241.751,-179.08 232.873,-185.516 236.855,-180.095 231.959,-181.11 231.959,-181.11 231.959,-181.11 236.855,-180.095 231.045,-176.704 241.751,-179.08 241.751,-179.08"/>
<text text-anchor="middle" x="194.5" y="-170.8" font-family="Yu Gothic" font-size="14.00">prototype</text>
</g>
<!-- Y.prototype&#45;&gt;X.prototype -->
<g id="edge17" class="edge"><title>Y.prototype&#45;&gt;X.prototype</title>
<path fill="none" stroke="black" d="M288.5,-182.187C288.5,-190.211 288.5,-199.953 288.5,-208.931"/>
<polygon fill="none" stroke="black" points="285,-208.971 288.5,-218.971 292,-208.971 285,-208.971"/>
</g>
<!-- Y.prototype&#45;&gt;class Y extends X {} -->
<g id="edge15" class="edge"><title>Y.prototype&#45;&gt;class Y extends X {}</title>
<path fill="none" stroke="black" d="M241.829,-164C217.104,-164 185.98,-164 157.241,-164"/>
<polygon fill="black" stroke="black" points="147.19,-164 157.19,-159.5 152.19,-164 157.19,-164 157.19,-164 157.19,-164 152.19,-164 157.19,-168.5 147.19,-164 147.19,-164"/>
<text text-anchor="middle" x="194.5" y="-149.8" font-family="Yu Gothic" font-size="14.00">constructor</text>
</g>
<!-- new Y() -->
<g id="node11" class="node"><title>new Y()</title>
<polygon fill="none" stroke="black" points="421.5,-109 353.5,-109 353.5,-73 421.5,-73 421.5,-109"/>
<text text-anchor="middle" x="387.5" y="-87.3" font-family="Yu Gothic" font-size="14.00">new Y()</text>
</g>
<!-- new Y()&#45;&gt;Y.prototype -->
<g id="edge18" class="edge"><title>new Y()&#45;&gt;Y.prototype</title>
<path fill="none" stroke="black" d="M363.787,-109.006C350.902,-118.247 334.782,-129.808 320.768,-139.858"/>
<polygon fill="none" stroke="black" points="318.449,-137.214 312.363,-145.886 322.529,-142.903 318.449,-137.214"/>
</g>
<!-- class Z extends Y {} -->
<g id="node12" class="node"><title>class Z extends Y {}</title>
<polygon fill="none" stroke="black" points="147,-109 0,-109 0,-73 147,-73 147,-109"/>
<text text-anchor="middle" x="73.5" y="-87.3" font-family="Yu Gothic" font-size="14.00">class Z extends Y {}</text>
</g>
<!-- class Z extends Y {}&#45;&gt;class Y extends X {} -->
<g id="edge21" class="edge"><title>class Z extends Y {}&#45;&gt;class Y extends X {}</title>
<path fill="none" stroke="black" d="M73.5,-109.187C73.5,-117.211 73.5,-126.953 73.5,-135.931"/>
<polygon fill="none" stroke="black" points="70.0001,-135.971 73.5,-145.971 77.0001,-135.971 70.0001,-135.971"/>
</g>
<!-- Z.prototype -->
<g id="node13" class="node"><title>Z.prototype</title>
<polygon fill="none" stroke="black" points="335,-109 242,-109 242,-73 335,-73 335,-109"/>
<text text-anchor="middle" x="288.5" y="-87.3" font-family="Yu Gothic" font-size="14.00">Z.prototype</text>
</g>
<!-- class Z extends Y {}&#45;&gt;Z.prototype -->
<g id="edge19" class="edge"><title>class Z extends Y {}&#45;&gt;Z.prototype</title>
<path fill="none" stroke="black" d="M147.135,-107.379C172.338,-110.936 200.683,-112.672 226.5,-109 228.217,-108.756 229.952,-108.476 231.698,-108.164"/>
<polygon fill="black" stroke="black" points="241.751,-106.08 232.873,-112.516 236.855,-107.095 231.959,-108.11 231.959,-108.11 231.959,-108.11 236.855,-107.095 231.045,-103.704 241.751,-106.08 241.751,-106.08"/>
<text text-anchor="middle" x="194.5" y="-97.8" font-family="Yu Gothic" font-size="14.00">prototype</text>
</g>
<!-- Z.prototype&#45;&gt;Y.prototype -->
<g id="edge22" class="edge"><title>Z.prototype&#45;&gt;Y.prototype</title>
<path fill="none" stroke="black" d="M288.5,-109.187C288.5,-117.211 288.5,-126.953 288.5,-135.931"/>
<polygon fill="none" stroke="black" points="285,-135.971 288.5,-145.971 292,-135.971 285,-135.971"/>
</g>
<!-- Z.prototype&#45;&gt;class Z extends Y {} -->
<g id="edge20" class="edge"><title>Z.prototype&#45;&gt;class Z extends Y {}</title>
<path fill="none" stroke="black" d="M241.829,-91C217.104,-91 185.98,-91 157.241,-91"/>
<polygon fill="black" stroke="black" points="147.19,-91 157.19,-86.5001 152.19,-91 157.19,-91.0001 157.19,-91.0001 157.19,-91.0001 152.19,-91 157.19,-95.5001 147.19,-91 147.19,-91"/>
<text text-anchor="middle" x="194.5" y="-76.8" font-family="Yu Gothic" font-size="14.00">constructor</text>
</g>
<!-- new Z() -->
<g id="node14" class="node"><title>new Z()</title>
<polygon fill="none" stroke="black" points="322.5,-36 254.5,-36 254.5,-0 322.5,-0 322.5,-36"/>
<text text-anchor="middle" x="288.5" y="-14.3" font-family="Yu Gothic" font-size="14.00">new Z()</text>
</g>
<!-- new Z()&#45;&gt;Z.prototype -->
<g id="edge23" class="edge"><title>new Z()&#45;&gt;Z.prototype</title>
<path fill="none" stroke="black" d="M288.5,-36.1871C288.5,-44.2105 288.5,-53.9525 288.5,-62.9309"/>
<polygon fill="none" stroke="black" points="285,-62.9711 288.5,-72.9712 292,-62.9712 285,-62.9711"/>
</g>
</g>
</svg>
