<?xml version="1.0" encoding="UTF-8" standalone="no"?>
<!DOCTYPE svg PUBLIC "-//W3C//DTD SVG 1.1//EN"
 "http://www.w3.org/Graphics/SVG/1.1/DTD/svg11.dtd">
<!-- Generated by graphviz version 2.38.0 (20140413.2041)
 -->
<!-- Title: GenderIdentity Pages: 1 -->
<svg width="248pt" height="314pt"
 viewBox="0.00 0.00 248.00 314.00" xmlns="http://www.w3.org/2000/svg" xmlns:xlink="http://www.w3.org/1999/xlink">
<g id="graph0" class="graph" transform="scale(1 1) rotate(0) translate(4 310)">
<title>GenderIdentity</title>
<polygon fill="white" stroke="none" points="-4,4 -4,-310 244,-310 244,4 -4,4"/>
<!-- 男性 -->
<g id="node1" class="node"><title>男性</title>
<polygon fill="none" stroke="black" points="78,-198 24,-198 24,-162 78,-162 78,-198"/>
<text text-anchor="middle" x="51" y="-176.3" font-family="Yu Gothic" font-size="14.00">男性</text>
</g>
<!-- オス -->
<g id="node3" class="node"><title>オス</title>
<polygon fill="none" stroke="black" points="78,-144 24,-144 24,-108 78,-108 78,-144"/>
<text text-anchor="middle" x="51" y="-122.3" font-family="Yu Gothic" font-size="14.00">オス</text>
</g>
<!-- 男性&#45;&gt;オス -->
<g id="edge1" class="edge"><title>男性&#45;&gt;オス</title>
<path fill="none" stroke="black" stroke-dasharray="1,5" d="M51,-161.79C51,-155.907 51,-150.024 51,-144.141"/>
</g>
<!-- 女性 -->
<g id="node2" class="node"><title>女性</title>
<polygon fill="none" stroke="black" points="78,-36 24,-36 24,-0 78,-0 78,-36"/>
<text text-anchor="middle" x="51" y="-14.3" font-family="Yu Gothic" font-size="14.00">女性</text>
</g>
<!-- メス -->
<g id="node4" class="node"><title>メス</title>
<polygon fill="none" stroke="black" points="78,-90 24,-90 24,-54 78,-54 78,-90"/>
<text text-anchor="middle" x="51" y="-68.3" font-family="Yu Gothic" font-size="14.00">メス</text>
</g>
<!-- メス&#45;&gt;女性 -->
<g id="edge2" class="edge"><title>メス&#45;&gt;女性</title>
<path fill="none" stroke="black" stroke-dasharray="1,5" d="M51,-53.7902C51,-47.907 51,-42.0238 51,-36.1406"/>
</g>
<!-- マスキュリン -->
<g id="node5" class="node"><title>マスキュリン</title>
<polygon fill="none" stroke="black" points="102,-252 0,-252 0,-216 102,-216 102,-252"/>
<text text-anchor="middle" x="51" y="-230.3" font-family="Yu Gothic" font-size="14.00">マスキュリン</text>
</g>
<!-- フェミニン -->
<g id="node6" class="node"><title>フェミニン</title>
<polygon fill="none" stroke="black" points="94.5,-306 7.5,-306 7.5,-270 94.5,-270 94.5,-306"/>
<text text-anchor="middle" x="51" y="-284.3" font-family="Yu Gothic" font-size="14.00">フェミニン</text>
</g>
<!-- シス男性 -->
<g id="node7" class="node"><title>シス男性</title>
<polygon fill="none" stroke="black" points="225.5,-198 152.5,-198 152.5,-162 225.5,-162 225.5,-198"/>
<text text-anchor="middle" x="189" y="-176.3" font-family="Yu Gothic" font-size="14.00">シス男性</text>
</g>
<!-- シス男性&#45;&gt;男性 -->
<g id="edge4" class="edge"><title>シス男性&#45;&gt;男性</title>
<path fill="none" stroke="black" stroke-dasharray="5,2" d="M152.268,-180C132.521,-180 108.049,-180 88.2249,-180"/>
<polygon fill="none" stroke="black" points="88.0412,-176.5 78.0412,-180 88.0411,-183.5 88.0412,-176.5"/>
</g>
<!-- シス男性&#45;&gt;オス -->
<g id="edge3" class="edge"><title>シス男性&#45;&gt;オス</title>
<path fill="none" stroke="black" d="M152.268,-165.812C132.248,-157.863 107.372,-147.986 87.4054,-140.058"/>
<polygon fill="none" stroke="black" points="88.627,-136.777 78.0412,-136.34 86.0437,-143.283 88.627,-136.777"/>
</g>
<!-- トランス男性 -->
<g id="node8" class="node"><title>トランス男性</title>
<polygon fill="none" stroke="black" points="240,-144 138,-144 138,-108 240,-108 240,-144"/>
<text text-anchor="middle" x="189" y="-122.3" font-family="Yu Gothic" font-size="14.00">トランス男性</text>
</g>
<!-- トランス男性&#45;&gt;男性 -->
<g id="edge8" class="edge"><title>トランス男性&#45;&gt;男性</title>
<path fill="none" stroke="black" stroke-dasharray="5,2" d="M142.336,-144.131C124.532,-151.201 104.43,-159.182 87.7165,-165.818"/>
<polygon fill="none" stroke="black" points="86.3128,-162.61 78.3103,-169.553 88.8961,-169.116 86.3128,-162.61"/>
</g>
<!-- トランス男性&#45;&gt;メス -->
<g id="edge7" class="edge"><title>トランス男性&#45;&gt;メス</title>
<path fill="none" stroke="black" d="M142.336,-107.869C124.532,-100.799 104.43,-92.8178 87.7165,-86.1815"/>
<polygon fill="none" stroke="black" points="88.8961,-82.8842 78.3103,-82.4467 86.3128,-89.3901 88.8961,-82.8842"/>
</g>
<!-- トランス女性 -->
<g id="node9" class="node"><title>トランス女性</title>
<polygon fill="none" stroke="black" points="240,-90 138,-90 138,-54 240,-54 240,-90"/>
<text text-anchor="middle" x="189" y="-68.3" font-family="Yu Gothic" font-size="14.00">トランス女性</text>
</g>
<!-- トランス女性&#45;&gt;女性 -->
<g id="edge10" class="edge"><title>トランス女性&#45;&gt;女性</title>
<path fill="none" stroke="black" stroke-dasharray="5,2" d="M142.336,-53.8686C124.532,-46.7994 104.43,-38.8178 87.7165,-32.1815"/>
<polygon fill="none" stroke="black" points="88.8961,-28.8842 78.3103,-28.4467 86.3128,-35.3901 88.8961,-28.8842"/>
</g>
<!-- トランス女性&#45;&gt;オス -->
<g id="edge9" class="edge"><title>トランス女性&#45;&gt;オス</title>
<path fill="none" stroke="black" d="M142.336,-90.1314C124.532,-97.2006 104.43,-105.182 87.7165,-111.818"/>
<polygon fill="none" stroke="black" points="86.3128,-108.61 78.3103,-115.553 88.8961,-115.116 86.3128,-108.61"/>
</g>
<!-- シス女性 -->
<g id="node10" class="node"><title>シス女性</title>
<polygon fill="none" stroke="black" points="225.5,-36 152.5,-36 152.5,-0 225.5,-0 225.5,-36"/>
<text text-anchor="middle" x="189" y="-14.3" font-family="Yu Gothic" font-size="14.00">シス女性</text>
</g>
<!-- シス女性&#45;&gt;女性 -->
<g id="edge6" class="edge"><title>シス女性&#45;&gt;女性</title>
<path fill="none" stroke="black" stroke-dasharray="5,2" d="M152.268,-18C132.521,-18 108.049,-18 88.2249,-18"/>
<polygon fill="none" stroke="black" points="88.0412,-14.5001 78.0412,-18 88.0411,-21.5001 88.0412,-14.5001"/>
</g>
<!-- シス女性&#45;&gt;メス -->
<g id="edge5" class="edge"><title>シス女性&#45;&gt;メス</title>
<path fill="none" stroke="black" d="M152.268,-32.1879C132.248,-40.1367 107.372,-50.0143 87.4054,-57.942"/>
<polygon fill="none" stroke="black" points="86.0437,-54.7168 78.0412,-61.6601 88.627,-61.2227 86.0437,-54.7168"/>
</g>
</g>
</svg>
