<?xml version="1.0" encoding="UTF-8" standalone="no"?>
<!DOCTYPE svg PUBLIC "-//W3C//DTD SVG 1.1//EN"
 "http://www.w3.org/Graphics/SVG/1.1/DTD/svg11.dtd">
<!-- Generated by graphviz version 2.38.0 (20140413.2041)
 -->
<!-- Title: HashMethod Pages: 1 -->
<svg width="370pt" height="305pt"
 viewBox="0.00 0.00 370.25 305.00" xmlns="http://www.w3.org/2000/svg" xmlns:xlink="http://www.w3.org/1999/xlink">
<g id="graph0" class="graph" transform="scale(1 1) rotate(0) translate(4 301)">
<title>HashMethod</title>
<polygon fill="white" stroke="none" points="-4,4 -4,-301 366.247,-301 366.247,4 -4,4"/>
<!-- URL -->
<g id="node1" class="node"><title>URL</title>
<ellipse fill="none" stroke="black" cx="108.247" cy="-192" rx="29.4969" ry="18"/>
<text text-anchor="middle" x="108.247" y="-188.3" font-family="Yu Gothic" font-size="14.00">URL</text>
</g>
<!-- 表現 -->
<g id="node2" class="node"><title>表現</title>
<ellipse fill="none" stroke="black" cx="29.2474" cy="-105" rx="29.4969" ry="18"/>
<text text-anchor="middle" x="29.2474" y="-101.3" font-family="Yu Gothic" font-size="14.00">表現</text>
</g>
<!-- URL&#45;&gt;表現 -->
<g id="edge2" class="edge"><title>URL&#45;&gt;表現</title>
<path fill="none" stroke="black" d="M80.8651,-185.505C64.2644,-180.663 44.2302,-171.815 33.2474,-156 28.6884,-149.435 26.8842,-141.151 26.4456,-133.224"/>
<polygon fill="black" stroke="black" points="26.5386,-123.183 30.9457,-133.224 26.4923,-128.183 26.4459,-133.183 26.4459,-133.183 26.4459,-133.183 26.4923,-128.183 21.9461,-133.141 26.5386,-123.183 26.5386,-123.183"/>
<text text-anchor="middle" x="63.7474" y="-144.8" font-family="Yu Gothic" font-size="14.00">GET/200</text>
</g>
<!-- 文書 -->
<g id="node3" class="node"><title>文書</title>
<polygon fill="none" stroke="black" points="135.247,-36 81.2474,-36 81.2474,-0 135.247,-0 135.247,-36"/>
<text text-anchor="middle" x="108.247" y="-14.3" font-family="Yu Gothic" font-size="14.00">文書</text>
</g>
<!-- URL&#45;&gt;文書 -->
<g id="edge1" class="edge"><title>URL&#45;&gt;文書</title>
<path fill="none" stroke="black" stroke-dasharray="5,2" d="M108.247,-173.879C108.247,-144.001 108.247,-82.1129 108.247,-46.2736"/>
<polygon fill="black" stroke="black" points="111.748,-46.0516 108.247,-36.0516 104.748,-46.0516 111.748,-46.0516"/>
<text text-anchor="middle" x="133.247" y="-101.3" font-family="Yu Gothic" font-size="14.00">identify</text>
</g>
<!-- 表現&#45;&gt;文書 -->
<g id="edge3" class="edge"><title>表現&#45;&gt;文書</title>
<path fill="none" stroke="black" stroke-dasharray="5,2" d="M24.8487,-86.9314C23.1933,-76.5974 22.998,-63.6041 29.2474,-54 38.5764,-39.6633 55.2675,-31.1544 70.9117,-26.126"/>
<polygon fill="none" stroke="black" points="72.2764,-29.3779 80.9531,-23.298 70.3787,-22.64 72.2764,-29.3779"/>
<text text-anchor="middle" x="61.7474" y="-57.8" font-family="Yu Gothic" font-size="14.00">represent</text>
</g>
<!-- URL#hash -->
<g id="node4" class="node"><title>URL#hash</title>
<ellipse fill="none" stroke="black" cx="186.247" cy="-279" rx="55.7903" ry="18"/>
<text text-anchor="middle" x="186.247" y="-275.3" font-family="Yu Gothic" font-size="14.00">URL#hash</text>
</g>
<!-- URL#hash&#45;&gt;URL -->
<g id="edge6" class="edge"><title>URL#hash&#45;&gt;URL</title>
<path fill="none" stroke="black" d="M146.028,-266.268C134.399,-260.969 122.816,-253.469 115.247,-243 110.534,-236.48 108.301,-228.209 107.375,-220.279"/>
<polygon fill="black" stroke="black" points="106.812,-210.229 111.864,-219.962 107.092,-215.221 107.371,-220.213 107.371,-220.213 107.371,-220.213 107.092,-215.221 102.878,-220.465 106.812,-210.229 106.812,-210.229"/>
<text text-anchor="middle" x="143.747" y="-231.8" font-family="Yu Gothic" font-size="14.00">truncate</text>
</g>
<!-- 外界リソース -->
<g id="node5" class="node"><title>外界リソース</title>
<polygon fill="none" stroke="black" points="278.247,-123 176.247,-123 176.247,-87 278.247,-87 278.247,-123"/>
<text text-anchor="middle" x="227.247" y="-101.3" font-family="Yu Gothic" font-size="14.00">外界リソース</text>
</g>
<!-- URL#hash&#45;&gt;外界リソース -->
<g id="edge5" class="edge"><title>URL#hash&#45;&gt;外界リソース</title>
<path fill="none" stroke="black" stroke-dasharray="5,2" d="M185.899,-260.747C185.895,-239.849 187.235,-203.749 195.247,-174 199.103,-159.685 205.84,-144.681 212.141,-132.42"/>
<polygon fill="black" stroke="black" points="215.419,-133.711 217.037,-123.241 209.243,-130.417 215.419,-133.711"/>
<text text-anchor="middle" x="224.247" y="-188.3" font-family="Yu Gothic" font-size="14.00">identify?</text>
</g>
<!-- フラグメント -->
<g id="node6" class="node"><title>フラグメント</title>
<polygon fill="none" stroke="black" points="362.247,-210 262.247,-210 262.247,-174 362.247,-174 362.247,-210"/>
<text text-anchor="middle" x="312.247" y="-188.3" font-family="Yu Gothic" font-size="14.00">フラグメント</text>
</g>
<!-- URL#hash&#45;&gt;フラグメント -->
<g id="edge4" class="edge"><title>URL#hash&#45;&gt;フラグメント</title>
<path fill="none" stroke="black" stroke-dasharray="5,2" d="M209.358,-262.41C228.675,-249.378 256.493,-230.612 278.335,-215.878"/>
<polygon fill="black" stroke="black" points="280.35,-218.74 286.683,-210.246 276.436,-212.937 280.35,-218.74"/>
<text text-anchor="middle" x="285.247" y="-231.8" font-family="Yu Gothic" font-size="14.00">identify?</text>
</g>
<!-- フラグメント&#45;&gt;文書 -->
<g id="edge7" class="edge"><title>フラグメント&#45;&gt;文書</title>
<path fill="none" stroke="black" d="M312.773,-173.678C312.521,-151.033 308.724,-111.389 287.247,-87 251.309,-46.1895 188.214,-29.7691 147.341,-23.232"/>
<polygon fill="black" stroke="black" points="147.3,-23.2261 140.788,-26.3239 135.424,-21.5044 141.936,-18.4067 147.3,-23.2261"/>
<text text-anchor="middle" x="327.747" y="-101.3" font-family="Yu Gothic" font-size="14.00">part of</text>
</g>
<!-- フラグメント&#45;&gt;外界リソース -->
<g id="edge8" class="edge"><title>フラグメント&#45;&gt;外界リソース</title>
<path fill="none" stroke="black" stroke-dasharray="5,2" d="M262.01,-176.783C251.8,-171.741 242.103,-164.992 235.247,-156 230.355,-149.584 227.943,-141.341 226.861,-133.407"/>
<polygon fill="none" stroke="black" points="230.344,-133.045 226.108,-123.333 223.363,-133.566 230.344,-133.045"/>
<text text-anchor="middle" x="267.747" y="-144.8" font-family="Yu Gothic" font-size="14.00">represent</text>
</g>
</g>
</svg>
