<?xml version="1.0" encoding="UTF-8" standalone="no"?>
<!DOCTYPE svg PUBLIC "-//W3C//DTD SVG 1.1//EN"
 "http://www.w3.org/Graphics/SVG/1.1/DTD/svg11.dtd">
<!-- Generated by graphviz version 2.38.0 (20140413.2041)
 -->
<!-- Title: Html5 Pages: 1 -->
<svg width="247pt" height="131pt"
 viewBox="0.00 0.00 246.95 131.00" xmlns="http://www.w3.org/2000/svg" xmlns:xlink="http://www.w3.org/1999/xlink">
<g id="graph0" class="graph" transform="scale(1 1) rotate(0) translate(4 127)">
<title>Html5</title>
<polygon fill="white" stroke="none" points="-4,4 -4,-127 242.945,-127 242.945,4 -4,4"/>
<!-- 文書 -->
<g id="node1" class="node"><title>文書</title>
<polygon fill="none" stroke="black" points="80.9452,-36 26.9452,-36 26.9452,-0 80.9452,-0 80.9452,-36"/>
<text text-anchor="middle" x="53.9452" y="-14.3" font-family="Yu Gothic" font-size="14.00">文書</text>
</g>
<!-- Document -->
<g id="node2" class="node"><title>Document</title>
<ellipse fill="none" stroke="black" cx="53.9452" cy="-105" rx="53.8905" ry="18"/>
<text text-anchor="middle" x="53.9452" y="-101.3" font-family="Courier New" font-size="14.00">Document</text>
</g>
<!-- Document&#45;&gt;文書 -->
<g id="edge1" class="edge"><title>Document&#45;&gt;文書</title>
<path fill="none" stroke="black" stroke-dasharray="5,2" d="M53.9452,-86.799C53.9452,-75.1626 53.9452,-59.5479 53.9452,-46.2368"/>
<polygon fill="black" stroke="black" points="57.4453,-46.1754 53.9452,-36.1754 50.4453,-46.1755 57.4453,-46.1754"/>
<text text-anchor="middle" x="68.4452" y="-57.8" font-family="Yu Gothic" font-size="14.00">表現</text>
</g>
<!-- Element -->
<g id="node3" class="node"><title>Element</title>
<ellipse fill="none" stroke="black" cx="189.945" cy="-105" rx="48.1917" ry="18"/>
<text text-anchor="middle" x="189.945" y="-101.3" font-family="Courier New" font-size="14.00">Element</text>
</g>
<!-- 事物 -->
<g id="node4" class="node"><title>事物</title>
<polygon fill="none" stroke="black" points="152.945,-36 98.9452,-36 98.9452,-0 152.945,-0 152.945,-36"/>
<text text-anchor="middle" x="125.945" y="-14.3" font-family="Yu Gothic" font-size="14.00">事物</text>
</g>
<!-- Element&#45;&gt;事物 -->
<g id="edge2" class="edge"><title>Element&#45;&gt;事物</title>
<path fill="none" stroke="black" stroke-dasharray="5,2" d="M176.967,-87.3175C172.499,-81.536 167.479,-75.0005 162.945,-69 156.921,-61.0276 150.418,-52.2862 144.569,-44.3732"/>
<polygon fill="black" stroke="black" points="147.285,-42.1586 138.533,-36.1875 141.651,-46.3131 147.285,-42.1586"/>
<text text-anchor="middle" x="177.445" y="-57.8" font-family="Yu Gothic" font-size="14.00">表現</text>
</g>
<!-- 要素API -->
<g id="node5" class="node"><title>要素API</title>
<polygon fill="none" stroke="black" points="238.945,-36 170.945,-36 170.945,-0 238.945,-0 238.945,-36"/>
<text text-anchor="middle" x="204.945" y="-14.3" font-family="Yu Gothic" font-size="14.00">要素API</text>
</g>
<!-- Element&#45;&gt;要素API -->
<g id="edge3" class="edge"><title>Element&#45;&gt;要素API</title>
<path fill="none" stroke="black" stroke-dasharray="5,2" d="M192.981,-86.799C195.034,-75.1626 197.79,-59.5479 200.139,-46.2368"/>
<polygon fill="black" stroke="black" points="203.623,-46.6316 201.914,-36.1754 196.73,-45.415 203.623,-46.6316"/>
<text text-anchor="middle" x="212.445" y="-57.8" font-family="Yu Gothic" font-size="14.00">実装</text>
</g>
</g>
</svg>
