<?xml version="1.0" encoding="UTF-8" standalone="no"?>
<!DOCTYPE svg PUBLIC "-//W3C//DTD SVG 1.1//EN"
 "http://www.w3.org/Graphics/SVG/1.1/DTD/svg11.dtd">
<!-- Generated by graphviz version 2.38.0 (20140413.2041)
 -->
<!-- Title: HTTPStatus Pages: 1 -->
<svg width="265pt" height="392pt"
 viewBox="0.00 0.00 264.60 392.00" xmlns="http://www.w3.org/2000/svg" xmlns:xlink="http://www.w3.org/1999/xlink">
<g id="graph0" class="graph" transform="scale(1 1) rotate(0) translate(4 388)">
<title>HTTPStatus</title>
<polygon fill="white" stroke="none" points="-4,4 -4,-388 260.596,-388 260.596,4 -4,4"/>
<!-- URL[a] -->
<g id="node1" class="node"><title>URL[a]</title>
<ellipse fill="none" stroke="black" cx="120.596" cy="-279" rx="41.6928" ry="18"/>
<text text-anchor="middle" x="120.596" y="-275.3" font-family="Yu Gothic" font-size="14.00">URL[a]</text>
</g>
<!-- 表現[a] -->
<g id="node2" class="node"><title>表現[a]</title>
<ellipse fill="none" stroke="black" cx="41.5963" cy="-192" rx="41.6928" ry="18"/>
<text text-anchor="middle" x="41.5963" y="-188.3" font-family="Yu Gothic" font-size="14.00">表現[a]</text>
</g>
<!-- URL[a]&#45;&gt;表現[a] -->
<g id="edge3" class="edge"><title>URL[a]&#45;&gt;表現[a]</title>
<path fill="none" stroke="black" d="M84.8151,-269.783C70.2788,-264.57 54.7759,-256.218 45.5963,-243 41.0373,-236.435 39.2331,-228.151 38.7945,-220.224"/>
<polygon fill="black" stroke="black" points="38.8876,-210.183 43.2946,-220.224 38.8412,-215.183 38.7948,-220.183 38.7948,-220.183 38.7948,-220.183 38.8412,-215.183 34.295,-220.141 38.8876,-210.183 38.8876,-210.183"/>
<text text-anchor="middle" x="76.0963" y="-231.8" font-family="Yu Gothic" font-size="14.00">GET/200</text>
</g>
<!-- 文書[a] -->
<g id="node3" class="node"><title>文書[a]</title>
<polygon fill="none" stroke="black" points="152.596,-123 88.5963,-123 88.5963,-87 152.596,-87 152.596,-123"/>
<text text-anchor="middle" x="120.596" y="-101.3" font-family="Yu Gothic" font-size="14.00">文書[a]</text>
</g>
<!-- URL[a]&#45;&gt;文書[a] -->
<g id="edge1" class="edge"><title>URL[a]&#45;&gt;文書[a]</title>
<path fill="none" stroke="black" stroke-dasharray="5,2" d="M120.596,-260.879C120.596,-231.001 120.596,-169.113 120.596,-133.274"/>
<polygon fill="black" stroke="black" points="124.096,-133.052 120.596,-123.052 117.096,-133.052 124.096,-133.052"/>
<text text-anchor="middle" x="145.596" y="-188.3" font-family="Yu Gothic" font-size="14.00">identify</text>
</g>
<!-- 表現[a]&#45;&gt;文書[a] -->
<g id="edge2" class="edge"><title>表現[a]&#45;&gt;文書[a]</title>
<path fill="none" stroke="black" stroke-dasharray="5,2" d="M37.1976,-173.931C35.5422,-163.597 35.3469,-150.604 41.5963,-141 50.0388,-128.026 64.5105,-119.824 78.7793,-114.656"/>
<polygon fill="none" stroke="black" points="80.0845,-117.913 88.5487,-111.541 77.958,-111.244 80.0845,-117.913"/>
<text text-anchor="middle" x="74.0963" y="-144.8" font-family="Yu Gothic" font-size="14.00">represent</text>
</g>
<!-- 外界リソース[b] -->
<g id="node5" class="node"><title>外界リソース[b]</title>
<polygon fill="none" stroke="black" points="225.096,-36 104.096,-36 104.096,-0 225.096,-0 225.096,-36"/>
<text text-anchor="middle" x="164.596" y="-14.3" font-family="Yu Gothic" font-size="14.00">外界リソース[b]</text>
</g>
<!-- 文書[a]&#45;&gt;外界リソース[b] -->
<g id="edge6" class="edge"><title>文書[a]&#45;&gt;外界リソース[b]</title>
<path fill="none" stroke="black" stroke-dasharray="5,2" d="M120.219,-86.9459C120.65,-76.8628 122.374,-64.1274 127.596,-54 129.458,-50.3899 131.843,-46.9484 134.504,-43.7313"/>
<polygon fill="none" stroke="black" points="137.253,-45.9157 141.543,-36.2281 132.149,-41.126 137.253,-45.9157"/>
<text text-anchor="middle" x="160.096" y="-57.8" font-family="Yu Gothic" font-size="14.00">represent</text>
</g>
<!-- URL[b] -->
<g id="node4" class="node"><title>URL[b]</title>
<ellipse fill="none" stroke="black" cx="165.596" cy="-366" rx="41.6928" ry="18"/>
<text text-anchor="middle" x="165.596" y="-362.3" font-family="Yu Gothic" font-size="14.00">URL[b]</text>
</g>
<!-- URL[b]&#45;&gt;URL[a] -->
<g id="edge5" class="edge"><title>URL[b]&#45;&gt;URL[a]</title>
<path fill="none" stroke="black" d="M147.225,-349.814C141.435,-344.153 135.531,-337.311 131.596,-330 127.832,-323.005 125.355,-314.8 123.726,-307.082"/>
<polygon fill="black" stroke="black" points="121.988,-297.02 128.124,-306.108 122.839,-301.947 123.69,-306.874 123.69,-306.874 123.69,-306.874 122.839,-301.947 119.255,-307.64 121.988,-297.02 121.988,-297.02"/>
<text text-anchor="middle" x="162.096" y="-318.8" font-family="Yu Gothic" font-size="14.00">GET/303</text>
</g>
<!-- URL[b]&#45;&gt;外界リソース[b] -->
<g id="edge4" class="edge"><title>URL[b]&#45;&gt;外界リソース[b]</title>
<path fill="none" stroke="black" stroke-dasharray="5,2" d="M180.182,-348.791C184.669,-343.153 189.292,-336.585 192.596,-330 202.945,-309.374 206.596,-303.077 206.596,-280 206.596,-280 206.596,-280 206.596,-104 206.596,-80.9231 203.127,-74.534 192.596,-54 190.898,-50.6894 188.858,-47.3946 186.662,-44.2251"/>
<polygon fill="black" stroke="black" points="189.43,-42.0823 180.616,-36.2033 183.84,-46.2957 189.43,-42.0823"/>
<text text-anchor="middle" x="231.596" y="-188.3" font-family="Yu Gothic" font-size="14.00">identify</text>
</g>
</g>
</svg>
