<?xml version="1.0" encoding="UTF-8" standalone="no"?>
<!DOCTYPE svg PUBLIC "-//W3C//DTD SVG 1.1//EN"
 "http://www.w3.org/Graphics/SVG/1.1/DTD/svg11.dtd">
<!-- Generated by graphviz version 2.38.0 (20140413.2041)
 -->
<!-- Title: Matrix Pages: 1 -->
<svg width="301pt" height="266pt"
 viewBox="0.00 0.00 301.00 265.84" xmlns="http://www.w3.org/2000/svg" xmlns:xlink="http://www.w3.org/1999/xlink">
<g id="graph0" class="graph" transform="scale(1 1) rotate(0) translate(4 261.839)">
<title>Matrix</title>
<polygon fill="white" stroke="none" points="-4,4 -4,-261.839 297,-261.839 297,4 -4,4"/>
<g id="clust1" class="cluster"><title>cluster_Right</title>
<polygon fill="none" stroke="black" points="215,-66.8393 215,-226.839 285,-226.839 285,-66.8393 215,-66.8393"/>
</g>
<g id="clust2" class="cluster"><title>cluster_Left</title>
<polygon fill="none" stroke="black" points="8,-89.8393 8,-249.839 78,-249.839 78,-89.8393 8,-89.8393"/>
</g>
<!-- R0 -->
<g id="node1" class="node"><title>R0</title>
<ellipse fill="none" stroke="black" cx="250" cy="-200.839" rx="27" ry="18"/>
<text text-anchor="middle" x="250" y="-197.139" font-family="Yu Gothic" font-size="14.00">0</text>
</g>
<!-- L0 -->
<g id="node3" class="node"><title>L0</title>
<ellipse fill="none" stroke="black" cx="43" cy="-223.839" rx="27" ry="18"/>
<text text-anchor="middle" x="43" y="-220.139" font-family="Yu Gothic" font-size="14.00">0</text>
</g>
<!-- R0&#45;&gt;L0 -->
<g id="edge1" class="edge"><title>R0&#45;&gt;L0</title>
<path fill="none" stroke="black" d="M223.037,-203.752C186.762,-207.822 120.773,-215.226 79.8372,-219.819"/>
<polygon fill="black" stroke="black" points="69.7526,-220.95 79.1885,-215.363 74.7214,-220.392 79.6902,-219.835 79.6902,-219.835 79.6902,-219.835 74.7214,-220.392 80.192,-224.307 69.7526,-220.95 69.7526,-220.95"/>
<text text-anchor="middle" x="146.5" y="-216.639" font-family="Yu Gothic" font-size="14.00">0</text>
</g>
<!-- L1 -->
<g id="node4" class="node"><title>L1</title>
<ellipse fill="none" stroke="black" cx="43" cy="-115.839" rx="27" ry="18"/>
<text text-anchor="middle" x="43" y="-112.139" font-family="Yu Gothic" font-size="14.00">1</text>
</g>
<!-- R0&#45;&gt;L1 -->
<g id="edge3" class="edge"><title>R0&#45;&gt;L1</title>
<path fill="none" stroke="black" d="M226.671,-191.581C190.164,-176.444 117.584,-146.35 75.7385,-128.999"/>
<polygon fill="black" stroke="black" points="66.3013,-125.086 77.2623,-124.76 70.92,-127.001 75.5387,-128.916 75.5387,-128.916 75.5387,-128.916 70.92,-127.001 73.8151,-133.073 66.3013,-125.086 66.3013,-125.086"/>
<text text-anchor="middle" x="146.5" y="-162.639" font-family="Yu Gothic" font-size="14.00">0</text>
</g>
<!-- R1 -->
<g id="node2" class="node"><title>R1</title>
<ellipse fill="none" stroke="black" cx="250" cy="-92.8393" rx="27" ry="18"/>
<text text-anchor="middle" x="250" y="-89.1393" font-family="Yu Gothic" font-size="14.00">1</text>
</g>
<!-- R1&#45;&gt;L0 -->
<g id="edge2" class="edge"><title>R1&#45;&gt;L0</title>
<path fill="none" stroke="black" d="M223.347,-97.1122C200.72,-101.7 167.476,-110.489 142,-125.839 109.654,-145.329 80.1341,-177.756 62.1331,-199.932"/>
<polygon fill="black" stroke="black" points="55.8162,-207.881 58.5148,-197.252 58.927,-203.966 62.0378,-200.052 62.0378,-200.052 62.0378,-200.052 58.927,-203.966 65.5608,-202.852 55.8162,-207.881 55.8162,-207.881"/>
<text text-anchor="middle" x="146.5" y="-129.639" font-family="Yu Gothic" font-size="14.00">0</text>
</g>
<!-- R1&#45;&gt;L1 -->
<g id="edge4" class="edge"><title>R1&#45;&gt;L1</title>
<path fill="none" stroke="black" d="M240.465,-75.821C223.717,-44.9403 184.466,15.4305 142,-3.83927 103.274,-21.4118 73.8344,-62.6863 57.7483,-89.9206"/>
<polygon fill="black" stroke="black" points="52.622,-98.9063 53.6687,-87.9904 55.0997,-94.5633 57.5773,-90.2203 57.5773,-90.2203 57.5773,-90.2203 55.0997,-94.5633 61.486,-92.4502 52.622,-98.9063 52.622,-98.9063"/>
<text text-anchor="middle" x="146.5" y="-7.63927" font-family="Yu Gothic" font-size="14.00">1</text>
</g>
</g>
</svg>
