<?xml version="1.0" encoding="UTF-8" standalone="no"?>
<!DOCTYPE svg PUBLIC "-//W3C//DTD SVG 1.1//EN"
 "http://www.w3.org/Graphics/SVG/1.1/DTD/svg11.dtd">
<!-- Generated by graphviz version 2.38.0 (20140413.2041)
 -->
<!-- Title: MotherSister Pages: 1 -->
<svg width="129pt" height="260pt"
 viewBox="0.00 0.00 129.39 260.00" xmlns="http://www.w3.org/2000/svg" xmlns:xlink="http://www.w3.org/1999/xlink">
<g id="graph0" class="graph" transform="scale(1 1) rotate(0) translate(4 256)">
<title>MotherSister</title>
<polygon fill="white" stroke="none" points="-4,4 -4,-256 125.389,-256 125.389,4 -4,4"/>
<!-- 姉の母 -->
<g id="node1" class="node"><title>姉の母</title>
<ellipse fill="none" stroke="black" cx="57.3891" cy="-162" rx="38.1938" ry="18"/>
<text text-anchor="middle" x="57.3891" y="-158.3" font-family="Yu Gothic" font-size="14.00">姉の母</text>
</g>
<!-- 父 -->
<g id="node2" class="node"><title>父</title>
<ellipse fill="none" stroke="black" cx="94.3891" cy="-234" rx="27" ry="18"/>
<text text-anchor="middle" x="94.3891" y="-230.3" font-family="Yu Gothic" font-size="14.00">父</text>
</g>
<!-- 姉の母&#45;&gt;父 -->
<g id="edge1" class="edge"><title>姉の母&#45;&gt;父</title>
<path fill="none" stroke="black" d="M66.1576,-179.589C72.0557,-190.748 79.7987,-205.396 85.6836,-216.53"/>
</g>
<!-- 姉 -->
<g id="node3" class="node"><title>姉</title>
<ellipse fill="none" stroke="black" cx="94.3891" cy="-90" rx="27" ry="18"/>
<text text-anchor="middle" x="94.3891" y="-86.3" font-family="Yu Gothic" font-size="14.00">姉</text>
</g>
<!-- 姉&#45;&gt;姉の母 -->
<g id="edge2" class="edge"><title>姉&#45;&gt;姉の母</title>
<path fill="none" stroke="black" d="M85.8076,-107.235C81.3886,-115.596 75.8976,-125.984 70.9237,-135.394"/>
<polygon fill="none" stroke="black" points="67.7599,-133.89 66.1811,-144.367 73.9485,-137.161 67.7599,-133.89"/>
</g>
<!-- 姉&#45;&gt;父 -->
<g id="edge3" class="edge"><title>姉&#45;&gt;父</title>
<path fill="none" stroke="black" d="M90.6268,-108.071C91.6947,-118.402 94.2558,-131.88 95.3891,-144 96.8789,-159.93 96.8789,-164.07 95.3891,-180 94.6011,-188.427 93.1228,-197.511 91.9362,-205.737"/>
<polygon fill="none" stroke="black" points="88.4296,-205.565 90.6268,-215.929 95.3726,-206.457 88.4296,-205.565"/>
</g>
<!-- 姉&#45;&gt;父 -->
<g id="edge4" class="edge"><title>姉&#45;&gt;父</title>
<path fill="none" stroke="black" d="M105.79,-106.661C109.455,-117.155 112.203,-131.321 113.389,-144 114.879,-159.93 114.879,-164.07 113.389,-180 112.203,-192.679 109.455,-206.845 105.79,-217.339"/>
</g>
<!-- 私 -->
<g id="node4" class="node"><title>私</title>
<ellipse fill="none" stroke="black" cx="42.3891" cy="-18" rx="27" ry="18"/>
<text text-anchor="middle" x="42.3891" y="-14.3" font-family="Yu Gothic" font-size="14.00">私</text>
</g>
<!-- 私&#45;&gt;父 -->
<g id="edge6" class="edge"><title>私&#45;&gt;父</title>
<path fill="none" stroke="black" d="M32.4349,-35.1724C15.1778,-65.4806 -16.0335,-132.086 10.3891,-180 21.1673,-199.545 42.5206,-212.874 60.9997,-221.278"/>
<polygon fill="none" stroke="black" points="59.7567,-224.552 70.3299,-225.23 62.4869,-218.106 59.7567,-224.552"/>
</g>
<!-- 私&#45;&gt;姉 -->
<g id="edge5" class="edge"><title>私&#45;&gt;姉</title>
<path fill="none" stroke="black" d="M53.9296,-34.5353C60.6619,-43.5979 69.2906,-55.2135 76.8489,-65.3881"/>
<polygon fill="none" stroke="black" points="74.108,-67.5678 82.8809,-73.5082 79.7273,-63.3936 74.108,-67.5678"/>
</g>
</g>
</svg>
