<?xml version="1.0" encoding="UTF-8" standalone="no"?>
<!DOCTYPE svg PUBLIC "-//W3C//DTD SVG 1.1//EN"
 "http://www.w3.org/Graphics/SVG/1.1/DTD/svg11.dtd">
<!-- Generated by graphviz version 2.38.0 (20140413.2041)
 -->
<!-- Title: Name Pages: 1 -->
<svg width="900pt" height="238pt"
 viewBox="0.00 0.00 900.00 238.00" xmlns="http://www.w3.org/2000/svg" xmlns:xlink="http://www.w3.org/1999/xlink">
<g id="graph0" class="graph" transform="scale(1 1) rotate(0) translate(4 234)">
<title>Name</title>
<polygon fill="white" stroke="none" points="-4,4 -4,-234 896,-234 896,4 -4,4"/>
<g id="clust1" class="cluster"><title>cluster_デレマス</title>
<polygon fill="none" stroke="black" points="8,-91 8,-166 364,-166 364,-91 8,-91"/>
<text text-anchor="middle" x="186" y="-98.8" font-family="Yu Gothic" font-size="14.00">デレマス</text>
</g>
<g id="clust3" class="cluster"><title>cluster_あいまいみー</title>
<polygon fill="none" stroke="black" points="530,-8 530,-83 884,-83 884,-8 530,-8"/>
<text text-anchor="middle" x="707" y="-15.8" font-family="Yu Gothic" font-size="14.00">あいまいみー</text>
</g>
<g id="clust2" class="cluster"><title>cluster_クラウズ</title>
<polygon fill="none" stroke="black" points="60,-8 60,-83 340,-83 340,-8 60,-8"/>
<text text-anchor="middle" x="200" y="-15.8" font-family="Yu Gothic" font-size="14.00">クラウズ</text>
</g>
<!-- 一ノ瀬志希 -->
<g id="node1" class="node"><title>一ノ瀬志希</title>
<ellipse fill="none" stroke="black" cx="73" cy="-140" rx="57.3905" ry="18"/>
<text text-anchor="middle" x="73" y="-136.3" font-family="Yu Gothic" font-size="14.00">一ノ瀬志希</text>
</g>
<!-- 藍原ことみ -->
<g id="node10" class="node"><title>藍原ことみ</title>
<ellipse fill="none" stroke="black" cx="73" cy="-212" rx="57.3905" ry="18"/>
<text text-anchor="middle" x="73" y="-208.3" font-family="Yu Gothic" font-size="14.00">藍原ことみ</text>
</g>
<!-- 一ノ瀬志希&#45;&gt;藍原ことみ -->
<g id="edge1" class="edge"><title>一ノ瀬志希&#45;&gt;藍原ことみ</title>
<path fill="none" stroke="black" d="M73,-158.303C73,-166.017 73,-175.288 73,-183.888"/>
<polygon fill="black" stroke="black" points="73,-193.896 68.5001,-183.896 73,-188.896 73.0001,-183.896 73.0001,-183.896 73.0001,-183.896 73,-188.896 77.5001,-183.896 73,-193.896 73,-193.896"/>
</g>
<!-- 二宮飛鳥 -->
<g id="node2" class="node"><title>二宮飛鳥</title>
<ellipse fill="none" stroke="black" cx="196" cy="-140" rx="47.3916" ry="18"/>
<text text-anchor="middle" x="196" y="-136.3" font-family="Yu Gothic" font-size="14.00">二宮飛鳥</text>
</g>
<!-- 青木志貴 -->
<g id="node11" class="node"><title>青木志貴</title>
<ellipse fill="none" stroke="black" cx="196" cy="-212" rx="47.3916" ry="18"/>
<text text-anchor="middle" x="196" y="-208.3" font-family="Yu Gothic" font-size="14.00">青木志貴</text>
</g>
<!-- 二宮飛鳥&#45;&gt;青木志貴 -->
<g id="edge2" class="edge"><title>二宮飛鳥&#45;&gt;青木志貴</title>
<path fill="none" stroke="black" d="M196,-158.303C196,-166.017 196,-175.288 196,-183.888"/>
<polygon fill="black" stroke="black" points="196,-193.896 191.5,-183.896 196,-188.896 196,-183.896 196,-183.896 196,-183.896 196,-188.896 200.5,-183.896 196,-193.896 196,-193.896"/>
</g>
<!-- 神崎蘭子 -->
<g id="node3" class="node"><title>神崎蘭子</title>
<ellipse fill="none" stroke="black" cx="309" cy="-140" rx="47.3916" ry="18"/>
<text text-anchor="middle" x="309" y="-136.3" font-family="Yu Gothic" font-size="14.00">神崎蘭子</text>
</g>
<!-- 内田真礼 -->
<g id="node12" class="node"><title>内田真礼</title>
<ellipse fill="none" stroke="black" cx="577" cy="-212" rx="47.3916" ry="18"/>
<text text-anchor="middle" x="577" y="-208.3" font-family="Yu Gothic" font-size="14.00">内田真礼</text>
</g>
<!-- 神崎蘭子&#45;&gt;内田真礼 -->
<g id="edge3" class="edge"><title>神崎蘭子&#45;&gt;内田真礼</title>
<path fill="none" stroke="black" d="M338.404,-154.266C348.307,-158.406 359.508,-162.737 370,-166 421.584,-182.042 482.122,-194.49 524.356,-202.187"/>
<polygon fill="black" stroke="black" points="534.414,-203.993 523.776,-206.655 529.493,-203.109 524.572,-202.226 524.572,-202.226 524.572,-202.226 529.493,-203.109 525.367,-197.796 534.414,-203.993 534.414,-203.993"/>
</g>
<!-- 一ノ瀬はじめ -->
<g id="node4" class="node"><title>一ノ瀬はじめ</title>
<ellipse fill="none" stroke="black" cx="134" cy="-57" rx="66.0889" ry="18"/>
<text text-anchor="middle" x="134" y="-53.3" font-family="Yu Gothic" font-size="14.00">一ノ瀬はじめ</text>
</g>
<!-- 一ノ瀬はじめ&#45;&gt;一ノ瀬志希 -->
<g id="edge10" class="edge"><title>一ノ瀬はじめ&#45;&gt;一ノ瀬志希</title>
<path fill="none" stroke="black" stroke-dasharray="5,2" d="M121.361,-74.7833C110.892,-88.6849 96.0877,-108.343 85.623,-122.238"/>
</g>
<!-- 一ノ瀬はじめ&#45;&gt;内田真礼 -->
<g id="edge4" class="edge"><title>一ノ瀬はじめ&#45;&gt;内田真礼</title>
<path fill="none" stroke="black" d="M170.095,-72.2342C182.267,-76.4384 196.051,-80.5632 209,-83 226.384,-86.2714 353.323,-81.1259 368,-91 398.52,-111.533 374.715,-142.483 403,-166 435.677,-193.169 482.833,-204.166 519.814,-208.509"/>
<polygon fill="black" stroke="black" points="529.954,-209.565 519.541,-213.005 524.981,-209.047 520.008,-208.529 520.008,-208.529 520.008,-208.529 524.981,-209.047 520.474,-204.053 529.954,-209.565 529.954,-209.565"/>
</g>
<!-- 爾乃美家累 -->
<g id="node5" class="node"><title>爾乃美家累</title>
<ellipse fill="none" stroke="black" cx="275" cy="-57" rx="57.3905" ry="18"/>
<text text-anchor="middle" x="275" y="-53.3" font-family="Yu Gothic" font-size="14.00">爾乃美家累</text>
</g>
<!-- 爾乃美家累&#45;&gt;二宮飛鳥 -->
<g id="edge11" class="edge"><title>爾乃美家累&#45;&gt;二宮飛鳥</title>
<path fill="none" stroke="black" stroke-dasharray="5,2" d="M259.013,-74.3916C245.217,-88.5371 225.404,-108.852 211.693,-122.909"/>
</g>
<!-- 村瀬歩 -->
<g id="node13" class="node"><title>村瀬歩</title>
<ellipse fill="none" stroke="black" cx="450" cy="-140" rx="38.1938" ry="18"/>
<text text-anchor="middle" x="450" y="-136.3" font-family="Yu Gothic" font-size="14.00">村瀬歩</text>
</g>
<!-- 爾乃美家累&#45;&gt;村瀬歩 -->
<g id="edge5" class="edge"><title>爾乃美家累&#45;&gt;村瀬歩</title>
<path fill="none" stroke="black" d="M325.271,-65.77C348.415,-70.7517 375.636,-78.6728 398,-91 409.6,-97.3942 420.653,-106.916 429.561,-115.797"/>
<polygon fill="black" stroke="black" points="436.505,-123.024 426.331,-118.931 433.041,-119.418 429.576,-115.813 429.576,-115.813 429.576,-115.813 433.041,-119.418 432.821,-112.695 436.505,-123.024 436.505,-123.024"/>
</g>
<!-- 愛 -->
<g id="node6" class="node"><title>愛</title>
<ellipse fill="none" stroke="black" cx="565" cy="-57" rx="27" ry="18"/>
<text text-anchor="middle" x="565" y="-53.3" font-family="Yu Gothic" font-size="14.00">愛</text>
</g>
<!-- 大坪由佳 -->
<g id="node14" class="node"><title>大坪由佳</title>
<ellipse fill="none" stroke="black" cx="554" cy="-140" rx="47.3916" ry="18"/>
<text text-anchor="middle" x="554" y="-136.3" font-family="Yu Gothic" font-size="14.00">大坪由佳</text>
</g>
<!-- 愛&#45;&gt;大坪由佳 -->
<g id="edge6" class="edge"><title>愛&#45;&gt;大坪由佳</title>
<path fill="none" stroke="black" d="M562.667,-75.178C561.223,-85.8097 559.338,-99.694 557.694,-111.796"/>
<polygon fill="black" stroke="black" points="556.329,-121.847 553.216,-111.332 557.002,-116.892 557.675,-111.938 557.675,-111.938 557.675,-111.938 557.002,-116.892 562.134,-112.543 556.329,-121.847 556.329,-121.847"/>
</g>
<!-- 茅野愛衣 -->
<g id="node16" class="node"><title>茅野愛衣</title>
<ellipse fill="none" stroke="black" cx="667" cy="-140" rx="47.3916" ry="18"/>
<text text-anchor="middle" x="667" y="-136.3" font-family="Yu Gothic" font-size="14.00">茅野愛衣</text>
</g>
<!-- 愛&#45;&gt;茅野愛衣 -->
<g id="edge14" class="edge"><title>愛&#45;&gt;茅野愛衣</title>
<path fill="none" stroke="black" stroke-dasharray="5,2" d="M582.728,-70.5812C591.098,-76.6269 601.166,-84.0537 610,-91 623.323,-101.475 637.936,-113.799 649.031,-123.336"/>
</g>
<!-- 麻衣 -->
<g id="node7" class="node"><title>麻衣</title>
<ellipse fill="none" stroke="black" cx="771" cy="-57" rx="29.4969" ry="18"/>
<text text-anchor="middle" x="771" y="-53.3" font-family="Yu Gothic" font-size="14.00">麻衣</text>
</g>
<!-- 内田彩 -->
<g id="node15" class="node"><title>内田彩</title>
<ellipse fill="none" stroke="black" cx="771" cy="-140" rx="38.1938" ry="18"/>
<text text-anchor="middle" x="771" y="-136.3" font-family="Yu Gothic" font-size="14.00">内田彩</text>
</g>
<!-- 麻衣&#45;&gt;内田彩 -->
<g id="edge7" class="edge"><title>麻衣&#45;&gt;内田彩</title>
<path fill="none" stroke="black" d="M771,-75.178C771,-85.8097 771,-99.694 771,-111.796"/>
<polygon fill="black" stroke="black" points="771,-121.847 766.5,-111.847 771,-116.847 771,-111.847 771,-111.847 771,-111.847 771,-116.847 775.5,-111.847 771,-121.847 771,-121.847"/>
</g>
<!-- ミイ -->
<g id="node8" class="node"><title>ミイ</title>
<ellipse fill="none" stroke="black" cx="847" cy="-57" rx="29.4969" ry="18"/>
<text text-anchor="middle" x="847" y="-53.3" font-family="Yu Gothic" font-size="14.00">ミイ</text>
</g>
<!-- ミイ&#45;&gt;内田真礼 -->
<g id="edge8" class="edge"><title>ミイ&#45;&gt;内田真礼</title>
<path fill="none" stroke="black" d="M847.631,-75.0293C847.524,-99.0015 843.509,-142.4 818,-166 791.771,-190.266 696.277,-202.059 633.659,-207.301"/>
<polygon fill="black" stroke="black" points="623.525,-208.117 633.132,-202.829 628.509,-207.716 633.493,-207.315 633.493,-207.315 633.493,-207.315 628.509,-207.716 633.854,-211.8 623.525,-208.117 623.525,-208.117"/>
</g>
<!-- ぽのか先輩 -->
<g id="node9" class="node"><title>ぽのか先輩</title>
<ellipse fill="none" stroke="black" cx="667" cy="-57" rx="56.59" ry="18"/>
<text text-anchor="middle" x="667" y="-53.3" font-family="Yu Gothic" font-size="14.00">ぽのか先輩</text>
</g>
<!-- ぽのか先輩&#45;&gt;茅野愛衣 -->
<g id="edge9" class="edge"><title>ぽのか先輩&#45;&gt;茅野愛衣</title>
<path fill="none" stroke="black" d="M667,-75.178C667,-85.8097 667,-99.694 667,-111.796"/>
<polygon fill="black" stroke="black" points="667,-121.847 662.5,-111.847 667,-116.847 667,-111.847 667,-111.847 667,-111.847 667,-116.847 671.5,-111.847 667,-121.847 667,-121.847"/>
</g>
<!-- 青木志貴&#45;&gt;一ノ瀬志希 -->
<g id="edge13" class="edge"><title>青木志貴&#45;&gt;一ノ瀬志希</title>
<path fill="none" stroke="black" stroke-dasharray="5,2" d="M170.499,-196.487C149.7,-184.65 120.422,-167.988 99.3866,-156.017"/>
</g>
<!-- 内田彩&#45;&gt;内田真礼 -->
<g id="edge12" class="edge"><title>内田彩&#45;&gt;内田真礼</title>
<path fill="none" stroke="black" stroke-dasharray="5,2" d="M747.478,-154.333C739.812,-158.384 731.17,-162.646 723,-166 687.299,-180.657 645.018,-193.19 615.168,-201.278"/>
</g>
</g>
</svg>
