<?xml version="1.0" encoding="UTF-8" standalone="no"?>
<!DOCTYPE svg PUBLIC "-//W3C//DTD SVG 1.1//EN"
 "http://www.w3.org/Graphics/SVG/1.1/DTD/svg11.dtd">
<!-- Generated by graphviz version 2.38.0 (20140413.2041)
 -->
<!-- Title: sample Pages: 1 -->
<svg width="316pt" height="171pt"
 viewBox="0.00 0.00 316.00 171.00" xmlns="http://www.w3.org/2000/svg" xmlns:xlink="http://www.w3.org/1999/xlink">
<g id="graph0" class="graph" transform="scale(1 1) rotate(0) translate(4 167)">
<title>sample</title>
<polygon fill="white" stroke="none" points="-4,4 -4,-167 312,-167 312,4 -4,4"/>
<g id="clust1" class="cluster"><title>cluster0</title>
<polygon fill="none" stroke="black" points="8,-8 8,-155 150,-155 150,-8 8,-8"/>
<text text-anchor="middle" x="79" y="-139.8" font-family="Times New Roman,serif" font-size="14.00">area 0</text>
</g>
<g id="clust2" class="cluster"><title>cluster1</title>
<polygon fill="none" stroke="black" points="158,-8 158,-155 300,-155 300,-8 158,-8"/>
<text text-anchor="middle" x="229" y="-139.8" font-family="Times New Roman,serif" font-size="14.00">area 1</text>
</g>
<!-- a -->
<g id="node1" class="node"><title>a</title>
<ellipse fill="none" stroke="black" cx="79" cy="-106" rx="27" ry="18"/>
<text text-anchor="middle" x="79" y="-102.3" font-family="Times New Roman,serif" font-size="14.00">a</text>
</g>
<!-- b -->
<g id="node2" class="node"><title>b</title>
<ellipse fill="none" stroke="black" cx="43" cy="-34" rx="27" ry="18"/>
<text text-anchor="middle" x="43" y="-30.3" font-family="Times New Roman,serif" font-size="14.00">b</text>
</g>
<!-- a&#45;&gt;b -->
<g id="edge1" class="edge"><title>a&#45;&gt;b</title>
<path fill="none" stroke="black" d="M70.6504,-88.7646C66.2885,-80.2831 60.8531,-69.7144 55.9587,-60.1974"/>
<polygon fill="black" stroke="black" points="58.9904,-58.4395 51.3043,-51.1473 52.7654,-61.6409 58.9904,-58.4395"/>
</g>
<!-- c -->
<g id="node3" class="node"><title>c</title>
<ellipse fill="none" stroke="black" cx="115" cy="-34" rx="27" ry="18"/>
<text text-anchor="middle" x="115" y="-30.3" font-family="Times New Roman,serif" font-size="14.00">c</text>
</g>
<!-- a&#45;&gt;c -->
<g id="edge2" class="edge"><title>a&#45;&gt;c</title>
<path fill="none" stroke="black" d="M87.3496,-88.7646C91.7115,-80.2831 97.1469,-69.7144 102.041,-60.1974"/>
<polygon fill="black" stroke="black" points="105.235,-61.6409 106.696,-51.1473 99.0096,-58.4395 105.235,-61.6409"/>
</g>
<!-- d -->
<g id="node4" class="node"><title>d</title>
<ellipse fill="none" stroke="black" cx="229" cy="-106" rx="27" ry="18"/>
<text text-anchor="middle" x="229" y="-102.3" font-family="Times New Roman,serif" font-size="14.00">d</text>
</g>
<!-- e -->
<g id="node5" class="node"><title>e</title>
<ellipse fill="none" stroke="black" cx="193" cy="-34" rx="27" ry="18"/>
<text text-anchor="middle" x="193" y="-30.3" font-family="Times New Roman,serif" font-size="14.00">e</text>
</g>
<!-- d&#45;&gt;e -->
<g id="edge3" class="edge"><title>d&#45;&gt;e</title>
<path fill="none" stroke="black" d="M220.65,-88.7646C216.288,-80.2831 210.853,-69.7144 205.959,-60.1974"/>
<polygon fill="black" stroke="black" points="208.99,-58.4395 201.304,-51.1473 202.765,-61.6409 208.99,-58.4395"/>
</g>
<!-- f -->
<g id="node6" class="node"><title>f</title>
<ellipse fill="none" stroke="black" cx="265" cy="-34" rx="27" ry="18"/>
<text text-anchor="middle" x="265" y="-30.3" font-family="Times New Roman,serif" font-size="14.00">f</text>
</g>
<!-- d&#45;&gt;f -->
<g id="edge4" class="edge"><title>d&#45;&gt;f</title>
<path fill="none" stroke="black" d="M237.35,-88.7646C241.712,-80.2831 247.147,-69.7144 252.041,-60.1974"/>
<polygon fill="black" stroke="black" points="255.235,-61.6409 256.696,-51.1473 249.01,-58.4395 255.235,-61.6409"/>
</g>
</g>
</svg>
