<?xml version="1.0" encoding="UTF-8" standalone="no"?>
<!DOCTYPE svg PUBLIC "-//W3C//DTD SVG 1.1//EN"
 "http://www.w3.org/Graphics/SVG/1.1/DTD/svg11.dtd">
<!-- Generated by graphviz version 2.38.0 (20140413.2041)
 -->
<!-- Title: Semantics Pages: 1 -->
<svg width="332pt" height="354pt"
 viewBox="0.00 0.00 332.35 353.69" xmlns="http://www.w3.org/2000/svg" xmlns:xlink="http://www.w3.org/1999/xlink">
<g id="graph0" class="graph" transform="scale(1 1) rotate(0) translate(4 349.693)">
<title>Semantics</title>
<polygon fill="white" stroke="none" points="-4,4 -4,-349.693 328.347,-349.693 328.347,4 -4,4"/>
<!-- 提供者 -->
<g id="node1" class="node"><title>提供者</title>
<ellipse fill="none" stroke="black" cx="42.3466" cy="-303.347" rx="38.2082" ry="38.2082"/>
<ellipse fill="none" stroke="black" cx="42.3466" cy="-303.347" rx="42.1937" ry="42.1937"/>
<text text-anchor="middle" x="42.3466" y="-299.647" font-family="Yu Gothic" font-size="14.00">提供者</text>
</g>
<!-- 文書 -->
<g id="node3" class="node"><title>文書</title>
<ellipse fill="none" stroke="black" cx="100.347" cy="-192" rx="29.4969" ry="18"/>
<text text-anchor="middle" x="100.347" y="-188.3" font-family="Yu Gothic" font-size="14.00">文書</text>
</g>
<!-- 提供者&#45;&gt;文書 -->
<g id="edge1" class="edge"><title>提供者&#45;&gt;文書</title>
<path fill="none" stroke="black" d="M50.4195,-261.414C53.7058,-250.091 58.22,-238.138 64.3466,-228 67.3335,-223.057 71.1854,-218.329 75.2546,-214.035"/>
<polygon fill="black" stroke="black" points="77.9434,-216.302 82.6739,-206.822 73.064,-211.283 77.9434,-216.302"/>
<text text-anchor="middle" x="78.8466" y="-231.8" font-family="Yu Gothic" font-size="14.00">記述</text>
</g>
<!-- 物品 -->
<g id="node4" class="node"><title>物品</title>
<ellipse fill="none" stroke="black" cx="90.3466" cy="-105" rx="29.4969" ry="18"/>
<text text-anchor="middle" x="90.3466" y="-101.3" font-family="Yu Gothic" font-size="14.00">物品</text>
</g>
<!-- 提供者&#45;&gt;物品 -->
<g id="edge3" class="edge"><title>提供者&#45;&gt;物品</title>
<path fill="none" stroke="black" d="M31.3079,-262.425C26.1066,-236.481 23.0401,-202.339 33.3466,-174 39.9303,-155.897 53.6822,-139.255 66.0287,-126.966"/>
<polygon fill="black" stroke="black" points="68.6223,-129.329 73.4579,-119.902 63.799,-124.256 68.6223,-129.329"/>
<text text-anchor="middle" x="47.8466" y="-188.3" font-family="Yu Gothic" font-size="14.00">頒布</text>
</g>
<!-- 意味 -->
<g id="node5" class="node"><title>意味</title>
<polygon fill="none" stroke="black" points="203.347,-123 149.347,-123 149.347,-87 203.347,-87 203.347,-123"/>
<text text-anchor="middle" x="176.347" y="-101.3" font-family="Yu Gothic" font-size="14.00">意味</text>
</g>
<!-- 提供者&#45;&gt;意味 -->
<g id="edge6" class="edge"><title>提供者&#45;&gt;意味</title>
<path fill="none" stroke="black" stroke-dasharray="5,2" d="M82.5655,-289.357C105.772,-279.928 133.753,-264.934 151.347,-243 176.406,-211.757 179.502,-163.582 178.567,-133.471"/>
<polygon fill="black" stroke="black" points="182.052,-133.079 178.073,-123.259 175.06,-133.417 182.052,-133.079"/>
<text text-anchor="middle" x="191.847" y="-188.3" font-family="Yu Gothic" font-size="14.00">通知</text>
</g>
<!-- 役務 -->
<g id="node6" class="node"><title>役務</title>
<polygon fill="none" stroke="black" points="155.347,-36 101.347,-36 101.347,-0 155.347,-0 155.347,-36"/>
<text text-anchor="middle" x="128.347" y="-14.3" font-family="Yu Gothic" font-size="14.00">役務</text>
</g>
<!-- 提供者&#45;&gt;役務 -->
<g id="edge7" class="edge"><title>提供者&#45;&gt;役務</title>
<path fill="none" stroke="black" stroke-dasharray="5,2" d="M24.0882,-265.078C10.3665,-231.888 -3.8332,-182.328 10.3466,-141 24.8821,-98.6358 63.7546,-63.5702 92.9406,-42.0707"/>
<polygon fill="black" stroke="black" points="95.176,-44.7748 101.268,-36.1064 91.0999,-39.0839 95.176,-44.7748"/>
<text text-anchor="middle" x="24.8466" y="-144.8" font-family="Yu Gothic" font-size="14.00">提供</text>
</g>
<!-- 受領者 -->
<g id="node2" class="node"><title>受領者</title>
<ellipse fill="none" stroke="black" cx="262.347" cy="-303.347" rx="38.2082" ry="38.2082"/>
<ellipse fill="none" stroke="black" cx="262.347" cy="-303.347" rx="42.1937" ry="42.1937"/>
<text text-anchor="middle" x="262.347" y="-299.647" font-family="Yu Gothic" font-size="14.00">受領者</text>
</g>
<!-- 受領者&#45;&gt;文書 -->
<g id="edge2" class="edge"><title>受領者&#45;&gt;文書</title>
<path fill="none" stroke="black" d="M227.594,-278.889C197.728,-258.731 155.248,-230.058 127.74,-211.49"/>
<polygon fill="black" stroke="black" points="129.616,-208.533 119.369,-205.84 125.699,-214.335 129.616,-208.533"/>
<text text-anchor="middle" x="186.847" y="-231.8" font-family="Yu Gothic" font-size="14.00">読解</text>
</g>
<!-- 受領者&#45;&gt;物品 -->
<g id="edge4" class="edge"><title>受領者&#45;&gt;物品</title>
<path fill="none" stroke="black" d="M248.595,-263.064C236.809,-230.823 219.947,-188.247 208.347,-174 186.636,-147.337 151.514,-129.024 125.223,-118.177"/>
<polygon fill="black" stroke="black" points="126.212,-114.805 115.626,-114.384 123.639,-121.315 126.212,-114.805"/>
<text text-anchor="middle" x="241.847" y="-188.3" font-family="Yu Gothic" font-size="14.00">入手</text>
</g>
<!-- 受領者&#45;&gt;意味 -->
<g id="edge8" class="edge"><title>受領者&#45;&gt;意味</title>
<path fill="none" stroke="black" stroke-dasharray="5,2" d="M271.599,-261.846C275.524,-235.506 276.58,-201.139 263.347,-174 252.684,-152.133 231.214,-135.236 212.272,-123.755"/>
<polygon fill="black" stroke="black" points="213.927,-120.669 203.515,-118.709 210.432,-126.734 213.927,-120.669"/>
<text text-anchor="middle" x="286.847" y="-188.3" font-family="Yu Gothic" font-size="14.00">認識</text>
</g>
<!-- 受領者&#45;&gt;役務 -->
<g id="edge9" class="edge"><title>受領者&#45;&gt;役務</title>
<path fill="none" stroke="black" stroke-dasharray="5,2" d="M286.831,-268.684C302.686,-242.546 318.187,-205.563 305.347,-174 278.834,-108.83 207.868,-61.1868 164.272,-36.9888"/>
<polygon fill="black" stroke="black" points="165.869,-33.8736 155.41,-32.1832 162.532,-40.027 165.869,-33.8736"/>
<text text-anchor="middle" x="309.847" y="-144.8" font-family="Yu Gothic" font-size="14.00">受領</text>
</g>
<!-- 文書&#45;&gt;物品 -->
<g id="edge5" class="edge"><title>文書&#45;&gt;物品</title>
<path fill="none" stroke="black" d="M88.5635,-175.457C84.8563,-169.664 81.2381,-162.829 79.3466,-156 77.2588,-148.462 77.9061,-140.198 79.6549,-132.599"/>
<polygon fill="black" stroke="black" points="83.0799,-133.359 82.569,-122.777 76.369,-131.368 83.0799,-133.359"/>
<text text-anchor="middle" x="93.8466" y="-144.8" font-family="Yu Gothic" font-size="14.00">言及</text>
</g>
<!-- 文書&#45;&gt;意味 -->
<g id="edge11" class="edge"><title>文書&#45;&gt;意味</title>
<path fill="none" stroke="black" stroke-dasharray="5,2" d="M113.934,-175.804C125.102,-163.314 141.147,-145.367 154.173,-130.8"/>
<polygon fill="black" stroke="black" points="156.992,-132.898 161.048,-123.11 151.774,-128.232 156.992,-132.898"/>
<text text-anchor="middle" x="157.847" y="-144.8" font-family="Yu Gothic" font-size="14.00">表現</text>
</g>
<!-- 物品&#45;&gt;役務 -->
<g id="edge12" class="edge"><title>物品&#45;&gt;役務</title>
<path fill="none" stroke="black" stroke-dasharray="5,2" d="M95.6355,-87.0419C98.8985,-77.2225 103.398,-64.7225 108.347,-54 109.725,-51.0134 111.271,-47.9437 112.877,-44.9221"/>
<polygon fill="black" stroke="black" points="115.964,-46.5729 117.767,-36.1327 109.847,-43.1696 115.964,-46.5729"/>
<text text-anchor="middle" x="122.847" y="-57.8" font-family="Yu Gothic" font-size="14.00">実現</text>
</g>
<!-- 意味&#45;&gt;役務 -->
<g id="edge10" class="edge"><title>意味&#45;&gt;役務</title>
<path fill="none" stroke="black" stroke-dasharray="5,2" d="M166.633,-86.799C159.867,-74.8169 150.718,-58.6168 143.061,-45.0569"/>
<polygon fill="black" stroke="black" points="146.011,-43.1619 138.046,-36.1754 139.915,-46.604 146.011,-43.1619"/>
<text text-anchor="middle" x="169.847" y="-57.8" font-family="Yu Gothic" font-size="14.00">約束</text>
</g>
</g>
</svg>
