<?xml version="1.0" encoding="UTF-8" standalone="no"?>
<!DOCTYPE svg PUBLIC "-//W3C//DTD SVG 1.1//EN"
 "http://www.w3.org/Graphics/SVG/1.1/DTD/svg11.dtd">
<!-- Generated by graphviz version 2.38.0 (20140413.2041)
 -->
<!-- Title: SexAndGenderIdentity Pages: 1 -->
<svg width="306pt" height="253pt"
 viewBox="0.00 0.00 306.00 253.00" xmlns="http://www.w3.org/2000/svg" xmlns:xlink="http://www.w3.org/1999/xlink">
<g id="graph0" class="graph" transform="scale(1 1) rotate(0) translate(4 249)">
<title>SexAndGenderIdentity</title>
<polygon fill="white" stroke="none" points="-4,4 -4,-249 302,-249 302,4 -4,4"/>
<g id="clust1" class="cluster"><title>cluster_sex</title>
<polygon fill="lightgrey" stroke="lightgrey" points="8,-65 8,-194 78,-194 78,-65 8,-65"/>
<text text-anchor="middle" x="43" y="-178.8" font-family="Yu Gothic" font-size="14.00">性</text>
</g>
<g id="clust2" class="cluster"><title>cluster_gender_identity</title>
<polygon fill="lightgrey" stroke="lightgrey" points="98,-65 98,-194 168,-194 168,-65 98,-65"/>
<text text-anchor="middle" x="133" y="-178.8" font-family="Yu Gothic" font-size="14.00">性自認</text>
</g>
<!-- オス -->
<g id="node1" class="node"><title>オス</title>
<polygon fill="none" stroke="black" points="70,-163 16,-163 16,-127 70,-127 70,-163"/>
<text text-anchor="middle" x="43" y="-141.3" font-family="Yu Gothic" font-size="14.00">オス</text>
</g>
<!-- メス -->
<g id="node2" class="node"><title>メス</title>
<polygon fill="none" stroke="black" points="70,-109 16,-109 16,-73 70,-73 70,-109"/>
<text text-anchor="middle" x="43" y="-87.3" font-family="Yu Gothic" font-size="14.00">メス</text>
</g>
<!-- 男性 -->
<g id="node3" class="node"><title>男性</title>
<polygon fill="none" stroke="black" points="160,-163 106,-163 106,-127 160,-127 160,-163"/>
<text text-anchor="middle" x="133" y="-141.3" font-family="Yu Gothic" font-size="14.00">男性</text>
</g>
<!-- 男性&#45;&gt;オス -->
<g id="edge1" class="edge"><title>男性&#45;&gt;オス</title>
<path fill="none" stroke="black" stroke-dasharray="1,5" d="M105.597,-145C94.3579,-145 81.2848,-145 70.081,-145"/>
</g>
<!-- 女性 -->
<g id="node4" class="node"><title>女性</title>
<polygon fill="none" stroke="black" points="160,-109 106,-109 106,-73 160,-73 160,-109"/>
<text text-anchor="middle" x="133" y="-87.3" font-family="Yu Gothic" font-size="14.00">女性</text>
</g>
<!-- 女性&#45;&gt;メス -->
<g id="edge2" class="edge"><title>女性&#45;&gt;メス</title>
<path fill="none" stroke="black" stroke-dasharray="1,5" d="M105.597,-91C94.3579,-91 81.2848,-91 70.081,-91"/>
</g>
<!-- シス男性 -->
<g id="node5" class="node"><title>シス男性</title>
<polygon fill="none" stroke="black" points="283.5,-245 210.5,-245 210.5,-209 283.5,-209 283.5,-245"/>
<text text-anchor="middle" x="247" y="-223.3" font-family="Yu Gothic" font-size="14.00">シス男性</text>
</g>
<!-- シス男性&#45;&gt;オス -->
<g id="edge3" class="edge"><title>シス男性&#45;&gt;オス</title>
<path fill="none" stroke="black" d="M210.221,-232.576C178.729,-235.7 132.628,-235.8 98,-217 79.7485,-207.091 65.8927,-188.063 56.7882,-172.056"/>
<polygon fill="none" stroke="black" points="59.7843,-170.237 51.9792,-163.072 53.6129,-173.54 59.7843,-170.237"/>
</g>
<!-- シス男性&#45;&gt;男性 -->
<g id="edge7" class="edge"><title>シス男性&#45;&gt;男性</title>
<path fill="none" stroke="black" stroke-dasharray="5,2" d="M221.144,-208.802C205.193,-197.124 184.301,-181.827 166.971,-169.139"/>
<polygon fill="none" stroke="black" points="168.923,-166.231 158.787,-163.148 164.788,-171.879 168.923,-166.231"/>
</g>
<!-- トランス男性 -->
<g id="node6" class="node"><title>トランス男性</title>
<polygon fill="none" stroke="black" points="298,-166 196,-166 196,-130 298,-130 298,-166"/>
<text text-anchor="middle" x="247" y="-144.3" font-family="Yu Gothic" font-size="14.00">トランス男性</text>
</g>
<!-- トランス男性&#45;&gt;メス -->
<g id="edge5" class="edge"><title>トランス男性&#45;&gt;メス</title>
<path fill="none" stroke="black" d="M225.297,-166.139C194.656,-190.707 136.692,-228.21 98,-198 69.1124,-175.445 97.8488,-148.81 78,-118 77.6683,-117.485 77.3234,-116.976 76.9665,-116.472"/>
<polygon fill="none" stroke="black" points="79.5231,-114.078 70.3175,-108.834 74.2432,-118.674 79.5231,-114.078"/>
</g>
<!-- トランス男性&#45;&gt;男性 -->
<g id="edge9" class="edge"><title>トランス男性&#45;&gt;男性</title>
<path fill="none" stroke="black" stroke-dasharray="5,2" d="M195.897,-146.658C187.311,-146.428 178.539,-146.193 170.399,-145.975"/>
<polygon fill="none" stroke="black" points="170.221,-142.469 160.131,-145.7 170.034,-149.467 170.221,-142.469"/>
</g>
<!-- トランス女性 -->
<g id="node7" class="node"><title>トランス女性</title>
<polygon fill="none" stroke="black" points="298,-105 196,-105 196,-69 298,-69 298,-105"/>
<text text-anchor="middle" x="247" y="-83.3" font-family="Yu Gothic" font-size="14.00">トランス女性</text>
</g>
<!-- トランス女性&#45;&gt;オス -->
<g id="edge6" class="edge"><title>トランス女性&#45;&gt;オス</title>
<path fill="none" stroke="black" d="M214.139,-68.8808C181.969,-53.2556 132.265,-36.7096 98,-61 76.0975,-76.5265 93.5678,-96.1268 78,-118 77.6449,-118.499 77.278,-118.993 76.9006,-119.483"/>
<polygon fill="none" stroke="black" points="74.2113,-117.237 70.0317,-126.973 79.3703,-121.969 74.2113,-117.237"/>
</g>
<!-- トランス女性&#45;&gt;女性 -->
<g id="edge10" class="edge"><title>トランス女性&#45;&gt;女性</title>
<path fill="none" stroke="black" stroke-dasharray="5,2" d="M195.897,-88.7894C187.311,-89.096 178.539,-89.4093 170.399,-89.7"/>
<polygon fill="none" stroke="black" points="170,-86.212 160.131,-90.0668 170.249,-93.2075 170,-86.212"/>
</g>
<!-- シス女性 -->
<g id="node8" class="node"><title>シス女性</title>
<polygon fill="none" stroke="black" points="283.5,-36 210.5,-36 210.5,-0 283.5,-0 283.5,-36"/>
<text text-anchor="middle" x="247" y="-14.3" font-family="Yu Gothic" font-size="14.00">シス女性</text>
</g>
<!-- シス女性&#45;&gt;メス -->
<g id="edge4" class="edge"><title>シス女性&#45;&gt;メス</title>
<path fill="none" stroke="black" d="M210.327,-19.3218C179.318,-21.6545 133.868,-27.9822 98,-45 87.2664,-50.0927 76.9542,-57.8793 68.27,-65.6063"/>
<polygon fill="none" stroke="black" points="65.6985,-63.2192 60.787,-72.6068 70.4807,-68.331 65.6985,-63.2192"/>
</g>
<!-- シス女性&#45;&gt;女性 -->
<g id="edge8" class="edge"><title>シス女性&#45;&gt;女性</title>
<path fill="none" stroke="black" stroke-dasharray="5,2" d="M218.315,-36.0449C203.339,-45.806 184.697,-57.9567 168.752,-68.3488"/>
<polygon fill="none" stroke="black" points="166.679,-65.5224 160.213,-73.915 170.501,-71.3867 166.679,-65.5224"/>
</g>
</g>
</svg>
