<?xml version="1.0" encoding="UTF-8" standalone="no"?>
<!DOCTYPE svg PUBLIC "-//W3C//DTD SVG 1.1//EN"
 "http://www.w3.org/Graphics/SVG/1.1/DTD/svg11.dtd">
<!-- Generated by graphviz version 2.38.0 (20140413.2041)
 -->
<!-- Title: SexualOrientation Pages: 1 -->
<svg width="130pt" height="131pt"
 viewBox="0.00 0.00 129.78 131.00" xmlns="http://www.w3.org/2000/svg" xmlns:xlink="http://www.w3.org/1999/xlink">
<g id="graph0" class="graph" transform="scale(1 1) rotate(0) translate(4 127)">
<title>SexualOrientation</title>
<polygon fill="white" stroke="none" points="-4,4 -4,-127 125.777,-127 125.777,4 -4,4"/>
<!-- オス -->
<g id="node1" class="node"><title>オス</title>
<polygon fill="none" stroke="black" points="60.7772,-123 6.77719,-123 6.77719,-87 60.7772,-87 60.7772,-123"/>
<text text-anchor="middle" x="33.7772" y="-101.3" font-family="Yu Gothic" font-size="14.00">オス</text>
</g>
<!-- オス&#45;&gt;オス -->
<g id="edge1" class="edge"><title>オス&#45;&gt;オス</title>
<path fill="none" stroke="black" d="M61.018,-112.867C70.8011,-113.036 78.7772,-110.414 78.7772,-105 78.7772,-101.701 75.8154,-99.4382 71.2877,-98.2123"/>
<polygon fill="black" stroke="black" points="61.018,-97.1327 71.4337,-93.703 65.9906,-97.6555 70.9632,-98.1783 70.9632,-98.1783 70.9632,-98.1783 65.9906,-97.6555 70.4926,-102.654 61.018,-97.1327 61.018,-97.1327"/>
<text text-anchor="middle" x="100.277" y="-101.3" font-family="Yu Gothic" font-size="14.00">同性愛</text>
</g>
<!-- メス -->
<g id="node2" class="node"><title>メス</title>
<polygon fill="none" stroke="black" points="60.7772,-36 6.77719,-36 6.77719,-0 60.7772,-0 60.7772,-36"/>
<text text-anchor="middle" x="33.7772" y="-14.3" font-family="Yu Gothic" font-size="14.00">メス</text>
</g>
<!-- オス&#45;&gt;メス -->
<g id="edge2" class="edge"><title>オス&#45;&gt;メス</title>
<path fill="none" stroke="black" d="M13.575,-86.928C8.79199,-81.7163 4.3398,-75.6006 1.77719,-69 -1.56464,-60.3923 1.3521,-51.6854 6.55603,-44.0031"/>
<polygon fill="black" stroke="black" points="12.9126,-36.1222 10.1371,-46.7311 9.77352,-40.0141 6.63443,-43.9059 6.63443,-43.9059 6.63443,-43.9059 9.77352,-40.0141 3.13179,-41.0807 12.9126,-36.1222 12.9126,-36.1222"/>
<text text-anchor="middle" x="23.2772" y="-57.8" font-family="Yu Gothic" font-size="14.00">異性愛</text>
</g>
<!-- メス&#45;&gt;オス -->
<g id="edge4" class="edge"><title>メス&#45;&gt;オス</title>
<path fill="none" stroke="black" d="M40.3261,-36.1991C42.1448,-41.7911 43.8691,-48.082 44.7772,-54 45.9449,-61.6103 45.0629,-69.7953 43.3846,-77.2946"/>
<polygon fill="black" stroke="black" points="40.7201,-86.9777 39.0345,-76.1421 42.0467,-82.1569 43.3732,-77.3361 43.3732,-77.3361 43.3732,-77.3361 42.0467,-82.1569 47.712,-78.53 40.7201,-86.9777 40.7201,-86.9777"/>
<text text-anchor="middle" x="66.2772" y="-57.8" font-family="Yu Gothic" font-size="14.00">異性愛</text>
</g>
<!-- メス&#45;&gt;メス -->
<g id="edge3" class="edge"><title>メス&#45;&gt;メス</title>
<path fill="none" stroke="black" d="M61.018,-25.8673C70.8011,-26.0365 78.7772,-23.4141 78.7772,-18 78.7772,-14.7008 75.8154,-12.4382 71.2877,-11.2123"/>
<polygon fill="black" stroke="black" points="61.018,-10.1327 71.4337,-6.70296 65.9906,-10.6555 70.9632,-11.1783 70.9632,-11.1783 70.9632,-11.1783 65.9906,-10.6555 70.4926,-15.6536 61.018,-10.1327 61.018,-10.1327"/>
<text text-anchor="middle" x="100.277" y="-14.3" font-family="Yu Gothic" font-size="14.00">同性愛</text>
</g>
</g>
</svg>
