<?xml version="1.0" encoding="UTF-8" standalone="no"?>
<!DOCTYPE svg PUBLIC "-//W3C//DTD SVG 1.1//EN"
 "http://www.w3.org/Graphics/SVG/1.1/DTD/svg11.dtd">
<!-- Generated by graphviz version 2.38.0 (20140413.2041)
 -->
<!-- Title: Matrix Pages: 1 -->
<svg width="494pt" height="251pt"
 viewBox="0.00 0.00 494.00 250.75" xmlns="http://www.w3.org/2000/svg" xmlns:xlink="http://www.w3.org/1999/xlink">
<g id="graph0" class="graph" transform="scale(1 1) rotate(0) translate(4 246.747)">
<title>Matrix</title>
<polygon fill="white" stroke="none" points="-4,4 -4,-246.747 490,-246.747 490,4 -4,4"/>
<!-- ✊ -->
<g id="node1" class="node"><title>✊</title>
<ellipse fill="none" stroke="black" cx="459" cy="-34.7466" rx="27" ry="18"/>
<text text-anchor="middle" x="459" y="-31.0466" font-family="Segoe UI Emoji" font-size="14.00">✊</text>
</g>
<!-- ✊&#45;&gt;✊ -->
<g id="edge1" class="edge"><title>✊&#45;&gt;✊</title>
<path fill="none" stroke="black" d="M470.109,-51.5373C485.273,-82.8191 481.57,-124.747 459,-124.747 438.634,-124.747 433.63,-90.6082 443.988,-60.9575"/>
<polygon fill="black" stroke="black" points="447.891,-51.5373 448.221,-62.4982 445.977,-56.1565 444.064,-60.7758 444.064,-60.7758 444.064,-60.7758 445.977,-56.1565 439.906,-59.0533 447.891,-51.5373 447.891,-51.5373"/>
<text text-anchor="middle" x="459" y="-128.547" font-family="Segoe UI" font-size="14.00">0</text>
</g>
<!-- ✌ -->
<g id="node2" class="node"><title>✌</title>
<ellipse fill="none" stroke="black" cx="243" cy="-137.747" rx="27" ry="18"/>
<text text-anchor="middle" x="243" y="-134.047" font-family="Segoe UI Emoji" font-size="14.00">✌</text>
</g>
<!-- ✊&#45;&gt;✌ -->
<g id="edge2" class="edge"><title>✊&#45;&gt;✌</title>
<path fill="none" stroke="black" d="M442.616,-49.2366C424.305,-65.7238 392.145,-92.3512 360,-107.747 334.506,-119.957 303.392,-127.657 279.808,-132.195"/>
<polygon fill="black" stroke="black" points="269.875,-134.006 278.905,-127.785 274.794,-133.109 279.713,-132.212 279.713,-132.212 279.713,-132.212 274.794,-133.109 280.52,-136.639 269.875,-134.006 269.875,-134.006"/>
<text text-anchor="middle" x="351" y="-118.547" font-family="Segoe UI" font-size="14.00">1</text>
</g>
<!-- ✋ -->
<g id="node3" class="node"><title>✋</title>
<ellipse fill="none" stroke="black" cx="27" cy="-34.7466" rx="27" ry="18"/>
<text text-anchor="middle" x="27" y="-31.0466" font-family="Segoe UI Emoji" font-size="14.00">✋</text>
</g>
<!-- ✊&#45;&gt;✋ -->
<g id="edge3" class="edge"><title>✊&#45;&gt;✋</title>
<path fill="none" stroke="black" d="M431.749,-34.7466C358.044,-34.7466 149.07,-34.7466 64.3485,-34.7466"/>
<polygon fill="black" stroke="black" points="54.1801,-34.7466 64.1802,-30.2467 59.1801,-34.7467 64.1801,-34.7467 64.1801,-34.7467 64.1801,-34.7467 59.1801,-34.7467 64.1801,-39.2467 54.1801,-34.7466 54.1801,-34.7466"/>
<text text-anchor="middle" x="243" y="-38.5466" font-family="Segoe UI" font-size="14.00">−1</text>
</g>
<!-- ✌&#45;&gt;✊ -->
<g id="edge4" class="edge"><title>✌&#45;&gt;✊</title>
<path fill="none" stroke="black" d="M264.471,-126.648C284.176,-116.072 314.894,-99.8616 342,-86.7466 370.161,-73.1214 402.701,-58.6421 426.137,-48.4319"/>
<polygon fill="black" stroke="black" points="435.584,-44.3325 428.201,-52.4414 430.997,-46.3229 426.41,-48.3133 426.41,-48.3133 426.41,-48.3133 430.997,-46.3229 424.619,-44.1852 435.584,-44.3325 435.584,-44.3325"/>
<text text-anchor="middle" x="351" y="-90.5466" font-family="Segoe UI" font-size="14.00">−1</text>
</g>
<!-- ✌&#45;&gt;✌ -->
<g id="edge5" class="edge"><title>✌&#45;&gt;✌</title>
<path fill="none" stroke="black" d="M254.109,-154.537C269.273,-185.819 265.57,-227.747 243,-227.747 222.634,-227.747 217.63,-193.608 227.988,-163.957"/>
<polygon fill="black" stroke="black" points="231.891,-154.537 232.221,-165.498 229.977,-159.157 228.064,-163.776 228.064,-163.776 228.064,-163.776 229.977,-159.157 223.906,-162.053 231.891,-154.537 231.891,-154.537"/>
<text text-anchor="middle" x="243" y="-231.547" font-family="Segoe UI" font-size="14.00">0</text>
</g>
<!-- ✌&#45;&gt;✋ -->
<g id="edge6" class="edge"><title>✌&#45;&gt;✋</title>
<path fill="none" stroke="black" d="M216.125,-134.006C191.94,-129.837 155.267,-121.763 126,-107.747 97.9984,-94.3357 69.9859,-72.402 51.1257,-56.0722"/>
<polygon fill="black" stroke="black" points="43.3837,-49.2366 53.8583,-52.482 47.1318,-52.5459 50.8799,-55.8553 50.8799,-55.8553 50.8799,-55.8553 47.1318,-52.5459 47.9015,-59.2286 43.3837,-49.2366 43.3837,-49.2366"/>
<text text-anchor="middle" x="135" y="-118.547" font-family="Segoe UI" font-size="14.00">1</text>
</g>
<!-- ✋&#45;&gt;✊ -->
<g id="edge7" class="edge"><title>✋&#45;&gt;✊</title>
<path fill="none" stroke="black" d="M53.3608,-29.9698C73.1347,-26.2741 101.293,-21.0742 126,-16.7466 165.944,-9.75016 175.586,-5.09133 216,-1.7466 280.127,3.56071 296.619,-5.64486 360,-16.7466 380.846,-20.398 404.15,-24.6704 422.801,-28.1363"/>
<polygon fill="black" stroke="black" points="432.639,-29.9698 421.984,-32.5614 427.724,-29.0537 422.808,-28.1376 422.808,-28.1376 422.808,-28.1376 427.724,-29.0537 423.633,-23.7138 432.639,-29.9698 432.639,-29.9698"/>
<text text-anchor="middle" x="243" y="-5.5466" font-family="Segoe UI" font-size="14.00">1</text>
</g>
<!-- ✋&#45;&gt;✌ -->
<g id="edge8" class="edge"><title>✋&#45;&gt;✌</title>
<path fill="none" stroke="black" d="M50.4164,-44.3325C73.9125,-54.4877 111.816,-71.175 144,-86.7466 167.295,-98.0173 193.256,-111.574 212.603,-121.877"/>
<polygon fill="black" stroke="black" points="221.529,-126.648 210.588,-125.902 217.119,-124.291 212.71,-121.934 212.71,-121.934 212.71,-121.934 217.119,-124.291 214.832,-117.965 221.529,-126.648 221.529,-126.648"/>
<text text-anchor="middle" x="135" y="-90.5466" font-family="Segoe UI" font-size="14.00">−1</text>
</g>
<!-- ✋&#45;&gt;✋ -->
<g id="edge9" class="edge"><title>✋&#45;&gt;✋</title>
<path fill="none" stroke="black" d="M38.1088,-51.5373C53.2733,-82.8191 49.5703,-124.747 27,-124.747 6.63382,-124.747 1.62991,-90.6082 11.9883,-60.9575"/>
<polygon fill="black" stroke="black" points="15.8912,-51.5373 16.2208,-62.4982 13.9773,-56.1565 12.0635,-60.7758 12.0635,-60.7758 12.0635,-60.7758 13.9773,-56.1565 7.90619,-59.0533 15.8912,-51.5373 15.8912,-51.5373"/>
<text text-anchor="middle" x="27" y="-128.547" font-family="Segoe UI" font-size="14.00">0</text>
</g>
</g>
</svg>
