<?xml version="1.0" encoding="UTF-8" standalone="no"?>
<!DOCTYPE svg PUBLIC "-//W3C//DTD SVG 1.1//EN"
 "http://www.w3.org/Graphics/SVG/1.1/DTD/svg11.dtd">
<!-- Generated by graphviz version 2.38.0 (20140413.2041)
 -->
<!-- Title: Weather Pages: 1 -->
<svg width="514pt" height="392pt"
 viewBox="0.00 0.00 513.83 392.00" xmlns="http://www.w3.org/2000/svg" xmlns:xlink="http://www.w3.org/1999/xlink">
<g id="graph0" class="graph" transform="scale(1 1) rotate(0) translate(4 388)">
<title>Weather</title>
<polygon fill="white" stroke="none" points="-4,4 -4,-388 509.831,-388 509.831,4 -4,4"/>
<!-- 「晴れ」 -->
<g id="node1" class="node"><title>「晴れ」</title>
<ellipse fill="none" stroke="black" cx="213.831" cy="-192" rx="47.3916" ry="18"/>
<text text-anchor="middle" x="213.831" y="-188.3" font-family="Yu Gothic" font-size="14.00">「晴れ」</text>
</g>
<!-- 2016&#45;12&#45;29の「天気」文書 -->
<g id="node4" class="node"><title>2016&#45;12&#45;29の「天気」文書</title>
<polygon fill="none" stroke="black" points="393.831,-123 199.831,-123 199.831,-87 393.831,-87 393.831,-123"/>
<text text-anchor="middle" x="296.831" y="-101.3" font-family="Yu Gothic" font-size="14.00">2016&#45;12&#45;29の「天気」文書</text>
</g>
<!-- 「晴れ」&#45;&gt;2016&#45;12&#45;29の「天気」文書 -->
<g id="edge1" class="edge"><title>「晴れ」&#45;&gt;2016&#45;12&#45;29の「天気」文書</title>
<path fill="none" stroke="black" stroke-dasharray="5,2" d="M211.057,-173.771C210.326,-163.377 211.182,-150.377 217.831,-141 221.085,-136.411 225.081,-132.416 229.531,-128.938"/>
<polygon fill="none" stroke="black" points="231.654,-131.728 237.971,-123.222 227.728,-125.932 231.654,-131.728"/>
<text text-anchor="middle" x="250.331" y="-144.8" font-family="Yu Gothic" font-size="14.00">represent</text>
</g>
<!-- http://example.org/weather -->
<g id="node2" class="node"><title>http://example.org/weather</title>
<ellipse fill="none" stroke="black" cx="353.831" cy="-366" rx="131.877" ry="18"/>
<text text-anchor="middle" x="353.831" y="-362.3" font-family="Yu Gothic" font-size="14.00">http://example.org/weather</text>
</g>
<!-- http://example.org/weather?date=2016&#45;12&#45;29 -->
<g id="node3" class="node"><title>http://example.org/weather?date=2016&#45;12&#45;29</title>
<ellipse fill="none" stroke="black" cx="213.831" cy="-279" rx="213.662" ry="18"/>
<text text-anchor="middle" x="213.831" y="-275.3" font-family="Yu Gothic" font-size="14.00">http://example.org/weather?date=2016&#45;12&#45;29</text>
</g>
<!-- http://example.org/weather&#45;&gt;http://example.org/weather?date=2016&#45;12&#45;29 -->
<g id="edge5" class="edge"><title>http://example.org/weather&#45;&gt;http://example.org/weather?date=2016&#45;12&#45;29</title>
<path fill="none" stroke="black" d="M324.205,-348.344C314.188,-342.621 302.973,-336.115 292.831,-330 278.236,-321.2 262.323,-311.207 248.629,-302.481"/>
<polygon fill="black" stroke="black" points="239.987,-296.954 250.836,-298.55 244.199,-299.648 248.412,-302.341 248.412,-302.341 248.412,-302.341 244.199,-299.648 245.987,-306.133 239.987,-296.954 239.987,-296.954"/>
<text text-anchor="middle" x="367.331" y="-318.8" font-family="Yu Gothic" font-size="14.00">GET/303(2016&#45;12&#45;29)</text>
</g>
<!-- 「天気」文書 -->
<g id="node5" class="node"><title>「天気」文書</title>
<polygon fill="none" stroke="black" points="447.831,-36 345.831,-36 345.831,-0 447.831,-0 447.831,-36"/>
<text text-anchor="middle" x="396.831" y="-14.3" font-family="Yu Gothic" font-size="14.00">「天気」文書</text>
</g>
<!-- http://example.org/weather&#45;&gt;「天気」文書 -->
<g id="edge3" class="edge"><title>http://example.org/weather&#45;&gt;「天気」文書</title>
<path fill="none" stroke="black" stroke-dasharray="5,2" d="M413.952,-349.758C424.353,-344.864 434.243,-338.434 441.831,-330 457.265,-312.844 455.831,-303.077 455.831,-280 455.831,-280 455.831,-280 455.831,-104 455.831,-80.5352 440.47,-58.8859 425.424,-43.3086"/>
<polygon fill="black" stroke="black" points="427.725,-40.6636 418.131,-36.168 422.828,-45.6652 427.725,-40.6636"/>
<text text-anchor="middle" x="480.831" y="-188.3" font-family="Yu Gothic" font-size="14.00">identify</text>
</g>
<!-- http://example.org/weather?date=2016&#45;12&#45;29&#45;&gt;「晴れ」 -->
<g id="edge6" class="edge"><title>http://example.org/weather?date=2016&#45;12&#45;29&#45;&gt;「晴れ」</title>
<path fill="none" stroke="black" d="M213.831,-260.799C213.831,-249.163 213.831,-233.548 213.831,-220.237"/>
<polygon fill="black" stroke="black" points="213.831,-210.175 218.331,-220.175 213.831,-215.175 213.831,-220.175 213.831,-220.175 213.831,-220.175 213.831,-215.175 209.331,-220.175 213.831,-210.175 213.831,-210.175"/>
<text text-anchor="middle" x="244.331" y="-231.8" font-family="Yu Gothic" font-size="14.00">GET/200</text>
</g>
<!-- http://example.org/weather?date=2016&#45;12&#45;29&#45;&gt;2016&#45;12&#45;29の「天気」文書 -->
<g id="edge4" class="edge"><title>http://example.org/weather?date=2016&#45;12&#45;29&#45;&gt;2016&#45;12&#45;29の「天気」文書</title>
<path fill="none" stroke="black" stroke-dasharray="5,2" d="M258.511,-261.32C266.364,-256.519 273.665,-250.491 278.831,-243 301.271,-210.462 302.282,-163.057 300.152,-133.401"/>
<polygon fill="black" stroke="black" points="303.63,-132.99 299.26,-123.338 296.657,-133.608 303.63,-132.99"/>
<text text-anchor="middle" x="325.831" y="-188.3" font-family="Yu Gothic" font-size="14.00">identify</text>
</g>
<!-- 2016&#45;12&#45;29の「天気」文書&#45;&gt;「天気」文書 -->
<g id="edge2" class="edge"><title>2016&#45;12&#45;29の「天気」文書&#45;&gt;「天気」文書</title>
<path fill="none" stroke="black" d="M317.068,-86.799C331.977,-74.1257 352.439,-56.7335 368.904,-42.7377"/>
<polygon fill="none" stroke="black" points="371.272,-45.3188 376.625,-36.1754 366.738,-39.9852 371.272,-45.3188"/>
<text text-anchor="middle" x="383.831" y="-57.8" font-family="Yu Gothic" font-size="14.00">snapshot</text>
</g>
</g>
</svg>
